<svg width="44" height="44" viewBox="0 0 44 44" fill="none" xmlns="http://www.w3.org/2000/svg">
<path d="M40.1223 25.3364C38.9061 24.8394 38.4723 22.6879 38.9061 21.0939C38.6833 20.8272 38.1558 19 37.983 16.1394C37.7983 13.0879 37.2092 13.4697 37.2092 13.4697L37.2444 17.3212C37.2444 17.3212 36.6172 18.806 36.3242 22.1243C36.0311 25.4424 38.1412 26.4788 38.1412 26.4788L35.7966 32.8424C35.7966 32.8424 35.7966 32.8667 33.9533 32.8424C35.6238 29.3667 35.3161 27.2182 35.3161 27.2182C35.3161 27.2182 33.9387 25.7939 32.6345 24.2697C32.8023 25.1558 33.1879 25.9823 33.754 26.6697L30.9523 32.8849L29.0357 33C29.828 31.9401 30.3935 30.7181 30.6944 29.4151C31.2805 27.0909 30.4014 25.0697 28.7397 23.5818C26.6882 24.3455 22.8784 24.4212 22.8784 24.4212L24.3877 26.7575L22.7641 32.8485L21.3281 32.8849C21.5661 32.0624 21.7386 31.2212 21.8439 30.3697C22.1369 28.4636 21.5127 27.8515 21.5127 27.8515L15.8712 22.5515C15.8712 22.5515 13.8198 23.5455 12.2929 24.4212C12.4812 24.7847 12.5798 25.1907 12.5798 25.603C12.5798 26.0153 12.4812 26.4213 12.2929 26.7849L8.53292 30.5606C8.53292 30.5606 8.38639 30.5606 8.1197 30.5425C8.49575 30.0358 8.67737 29.4034 8.62963 28.7666C8.62963 28.7666 8.0904 29.8152 7.34015 30.2667C7.04708 30.3303 5.91293 30.1606 5.76639 29.8363C6.73835 28.0998 7.31278 26.1562 7.44565 24.1545C7.51528 23.2713 7.49957 22.3831 7.39876 21.503L19.1389 11.0242C19.1389 11.0242 23.8865 12.3151 26.9813 12.4485C30.5216 12.6 34.3812 11 34.3812 11C35.2647 11.0497 36.1414 11.1898 36.9982 11.4182C38.0123 11.7636 38.7126 12.7849 38.7566 15.2697C38.8797 20.0909 39.5362 20.6455 39.5362 20.6455C41.573 22.4 41.2037 23.697 40.1223 25.3364ZM14.3854 19.7091C11.4548 18.8818 11.0269 21.7818 11.0269 21.7818C12.6124 22.0697 13.8872 21.6242 14.3854 19.7091Z" fill="#373737"/>
<path d="M18.3417 32.7725H16.5833C16.5833 32.7725 18.2127 30.1664 18.4355 25.818C19.763 27.0513 20.2964 27.5362 20.2964 27.5362L18.3417 32.7725Z" fill="#373737"/>
<path d="M6.90946 21.9605C6.90946 21.9605 5.0661 24.1938 3 21.8848C4.40084 20.5332 6.2999 20.7787 6.90946 21.9605Z" fill="#373737"/>
<path d="M10.177 25.3029C10.0584 25.3315 9.93545 25.3343 9.81582 25.3112C9.69611 25.2881 9.58243 25.2395 9.48184 25.1686C9.38131 25.0976 9.29609 25.0059 9.23162 24.8992C9.16714 24.7924 9.1248 24.6729 9.10729 24.5484C9.07292 24.4119 9.06537 24.2697 9.08509 24.1301C9.10481 23.9906 9.1514 23.8566 9.2221 23.736C9.2928 23.6154 9.38617 23.5107 9.4967 23.428C9.6072 23.3454 9.73264 23.2866 9.86558 23.255C9.99845 23.2233 10.1361 23.2196 10.2705 23.244C10.4048 23.2684 10.533 23.3203 10.6477 23.3968C10.7622 23.4734 10.8607 23.5729 10.9375 23.6895C11.0142 23.8061 11.0675 23.9374 11.0943 24.0757C11.1284 24.3639 11.0512 24.6544 10.8795 24.8842C10.7078 25.1139 10.4553 25.2644 10.177 25.3029Z" fill="white"/>
<path d="M10.1356 24.7908C10.075 24.8063 10.0118 24.8084 9.95031 24.797C9.88887 24.7856 9.8304 24.761 9.77865 24.7247C9.72698 24.6884 9.6833 24.6413 9.65038 24.5863C9.61747 24.5315 9.59602 24.47 9.58759 24.406C9.57223 24.3369 9.57011 24.2654 9.58144 24.1956C9.59276 24.1257 9.61733 24.0588 9.65364 23.9987C9.68995 23.9386 9.73738 23.8865 9.79316 23.8454C9.84895 23.8043 9.91209 23.7749 9.97884 23.759C10.0456 23.7431 10.1148 23.7409 10.1824 23.7527C10.2499 23.7644 10.3146 23.7898 10.3727 23.8273C10.4308 23.8649 10.4812 23.9139 10.5209 23.9716C10.5607 24.0293 10.5891 24.0946 10.6045 24.1636C10.622 24.3109 10.5825 24.4594 10.4948 24.5769C10.407 24.6943 10.2779 24.7712 10.1356 24.7908Z" fill="#373737"/>
</svg>
