<svg width="16" height="16" viewBox="0 0 16 16" fill="none" xmlns="http://www.w3.org/2000/svg">
<path fill-rule="evenodd" clip-rule="evenodd" d="M1.39433 2.72131C1.50315 2.48486 1.73964 2.33337 1.99993 2.33337H13.9999C14.2602 2.33337 14.4967 2.48486 14.6055 2.72131C14.7144 2.95776 14.6756 3.23592 14.5063 3.43364L9.8666 8.85239V14C9.8666 14.2305 9.74756 14.4446 9.55182 14.5663C9.35607 14.6879 9.11138 14.6998 8.90474 14.5978L6.50474 13.4126C6.27726 13.3003 6.13326 13.0685 6.13326 12.8148V8.85239L1.49353 3.43364C1.32424 3.23592 1.2855 2.95776 1.39433 2.72131ZM3.44841 3.66671L7.30633 8.17238C7.40975 8.29317 7.46659 8.44695 7.46659 8.60597V12.4005L8.53326 12.9273V8.60597C8.53326 8.44695 8.5901 8.29317 8.69353 8.17238L12.5514 3.66671H3.44841Z" fill="#7CC06E"/>
</svg>
