<svg width="24" height="24" viewBox="0 0 24 24" fill="none" xmlns="http://www.w3.org/2000/svg">
<path fill-rule="evenodd" clip-rule="evenodd" d="M2.9751 5.97485C2.9751 5.42257 3.42281 4.97485 3.9751 4.97485H19.9751C20.5274 4.97485 20.9751 5.42257 20.9751 5.97485C20.9751 6.52714 20.5274 6.97485 19.9751 6.97485H3.9751C3.42281 6.97485 2.9751 6.52714 2.9751 5.97485ZM2.9751 11.9749C2.9751 11.4226 3.42281 10.9749 3.9751 10.9749H19.9751C20.5274 10.9749 20.9751 11.4226 20.9751 11.9749C20.9751 12.5271 20.5274 12.9749 19.9751 12.9749H3.9751C3.42281 12.9749 2.9751 12.5271 2.9751 11.9749ZM2.9751 17.9749C2.9751 17.4226 3.42281 16.9749 3.9751 16.9749H19.9751C20.5274 16.9749 20.9751 17.4226 20.9751 17.9749C20.9751 18.5271 20.5274 18.9749 19.9751 18.9749H3.9751C3.42281 18.9749 2.9751 18.5271 2.9751 17.9749Z" fill="#7CC06E"/>
</svg>
