<svg width="44" height="44" viewBox="0 0 44 44" fill="none" xmlns="http://www.w3.org/2000/svg">
<path d="M13.9934 28.2245C14.5948 34.7706 8.34256 36.273 12.955 38.4027C17.2503 40.4264 22.1116 37.1252 24.8075 31.1411C27.5034 25.1571 25.2206 18.8064 22.7445 16.5451C18.8762 13.0037 12.9398 16.7265 13.9934 28.2245Z" fill="#373737"/>
<path d="M14.6911 28.1036C15.8382 34.5744 24.2255 30.8197 21.7304 35.2822C19.5145 38.2589 16.8881 39.8967 12.997 38.4761C11.8815 38.0673 9.83869 37.0375 8.59305 35.8405C5.07469 32.8382 2.03513 26.6421 3.28708 21.7427C4.58831 17.316 12.7633 17.2279 14.6911 28.1036Z" fill="#373737"/>
<path d="M33.8763 13.1172C32.163 16.3642 35.0738 18.5087 32.2315 18.597C29.5787 18.7027 27.7692 15.9339 27.6569 12.2586C27.5446 8.58327 30.087 5.80012 31.8527 5.17396C34.6131 4.19534 36.8871 7.41354 33.8763 13.1172Z" fill="#373737"/>
<path d="M33.8189 13.2189C31.7957 16.1217 28.1841 12.5772 28.5255 15.2543C29.0449 17.1498 30.075 18.4884 32.4445 18.594C33.1254 18.6247 34.4278 18.5452 35.349 18.2212C37.8673 17.4874 40.8301 15.1072 41.2396 12.4725C41.5227 10.0625 37.2204 8.33942 33.8189 13.2189Z" fill="#373737"/>
</svg>
