<svg width="44" height="44" viewBox="0 0 44 44" fill="none" xmlns="http://www.w3.org/2000/svg">
<g clip-path="url(#clip0_46_2141)">
<path d="M19.209 30.0487C19.209 30.0487 21.0863 35.1711 23.1709 35.3711C25.2556 35.5711 25.9131 29.3647 25.9131 29.3647L19.209 30.0487Z" fill="#373737"/>
<path d="M22.3652 32.8642L23.5635 42.8157L24.6296 42.8798L23.9184 32.4321L22.3652 32.8642Z" fill="#373737"/>
<path d="M26.0828 42.7452L25.9169 43.3895L18.8948 44.0002L18.8503 43.4201L21.3682 43.1788L18.4785 42.817L18.8457 42.3269L26.0828 42.7452Z" fill="#373737"/>
<path d="M15.0809 30.8882L8.14941 38.1678L8.7808 39.0243L16.4066 31.7981L15.0809 30.8882Z" fill="#373737"/>
<path d="M10.1572 39.9467L9.59648 40.3116L4 36.0519L4.36101 35.5939L6.38269 37.1054L4.4962 34.9007L5.09994 34.7847L10.1572 39.9467Z" fill="#373737"/>
<path d="M7.13064 17.7002L5.35322 19.3796C5.0091 19.7201 4.91079 20.511 5.41928 21.0896C5.46687 21.1433 5.52498 21.1867 5.59005 21.2172C5.65513 21.2478 5.72579 21.2648 5.7977 21.2672C5.86962 21.2696 5.94128 21.2574 6.00829 21.2314C6.0753 21.2053 6.13625 21.1659 6.18739 21.1156L7.32727 19.9858C7.19362 19.3903 7.03078 18.4743 7.13064 17.7002Z" fill="#373737"/>
<path d="M11.0084 16.0483L13.9165 12.9688L13.0101 12.0894L12.0192 13.0344L10.3125 14.6696C10.3909 15.1948 10.6059 15.7261 11.0084 16.0483Z" fill="#373737"/>
<path d="M39.8676 18.9855C39.1164 16.9213 35.5662 18.245 35.5662 18.245C35.5662 18.245 37.8705 15.3167 36.1807 14.1808C33.3955 12.5685 30.6656 19.5535 28.8867 21.3291C27.5824 22.633 25.7482 22.6727 24.278 21.0237C20.3084 16.1579 21.5589 7.78818 21.9122 7.52252C28.2107 5.11175 26.8758 1.59559 23.1842 3.31932C25.6268 -1.4839 19.4711 -0.664028 19.5157 3.15595C19.0548 2.15286 18.2191 2.27653 17.8719 2.72388C17.3557 3.38955 17.5754 4.88578 18.8351 5.91483C18.6923 6.20949 18.5463 6.52554 18.405 6.86448C17.5324 6.40645 17.2083 6.20186 16.9655 6.08888C17.047 6.71028 17.1499 8.09658 17.2467 8.37904C17.514 9.15158 17.4341 8.49049 16.7459 8.9699C16.1314 9.40044 15.6259 9.70885 15.1267 10.1516C14.3048 10.8784 15.669 11.625 16.4878 11.5807C15.1278 13.5152 14.2202 15.7276 13.8316 18.0557C14.8299 18.4034 15.9089 18.4523 16.9348 18.1962L17.1914 18.5366C17.1914 18.5366 16.6122 18.9321 15.1466 19.0084C13.7825 19.0817 12.3184 18.474 11.5933 17.7427C11.5749 17.7259 11.5595 17.7076 11.5411 17.6908C11.3767 17.5381 11.2339 17.3855 11.0925 17.2328C9.70992 15.7564 9.73757 14.5625 9.73757 14.5625L10.9082 13.6464C10.4506 13.5386 9.97919 13.501 9.51021 13.5349C8.69447 13.5762 8.04158 14.0205 7.79271 14.9243C6.96929 18.0481 7.65291 24.9888 15.3356 27.9644C14.4615 29.4805 13.7118 31.2607 14.145 32.3921C14.7288 33.5692 17.1422 32.6257 18.8428 31.7692C18.4213 30.5452 18.2099 29.2596 18.2176 27.966L18.5755 27.8744C18.8314 29.0901 19.238 30.2696 19.7861 31.3859C20.0788 31.2289 20.3477 31.0315 20.5849 30.7997L20.5019 30.6546C22.7371 31.5539 25.0215 31.4592 26.9311 30.4348C29.3475 29.1614 30.8838 26.1964 31.5121 23.3597C33.142 24.3109 35.5892 25.1292 36.5586 24.7659C37.4896 24.4178 37.7292 23.3124 36.9964 22.236C38.2116 22.32 40.5805 20.9413 39.8676 18.9855Z" fill="#373737"/>
<path d="M15.3685 13.3626C13.0227 12.9443 11.7645 11.2664 12.1117 9.02965C12.5111 6.45857 14.9076 4.6463 17.3241 5.08448C19.2674 5.43716 20.9957 7.96092 20.6347 9.92129C20.2061 12.2466 17.8265 13.8023 15.3685 13.3626Z" fill="white"/>
<path d="M15.9442 11.0754C14.9073 10.8892 14.3389 10.141 14.494 9.14253C14.6722 7.99593 15.7399 7.18827 16.8183 7.38369C17.6863 7.53637 18.4575 8.66771 18.2962 9.54102C18.1042 10.5792 17.0411 11.2724 15.9442 11.0754Z" fill="#373737"/>
<path d="M16.3267 3.40967C15.1669 3.40967 14.0332 3.75146 13.0689 4.39181C12.1046 5.03216 11.3531 5.94232 10.9093 7.00719C10.4654 8.07206 10.3493 9.24382 10.5756 10.3743C10.8018 11.5047 11.3603 12.5431 12.1804 13.3581C13.0004 14.1732 14.0453 14.7282 15.1827 14.9531C16.3202 15.1779 17.4992 15.0625 18.5707 14.6214C19.6421 14.1803 20.5579 13.4334 21.2022 12.475C21.8466 11.5167 22.1905 10.39 22.1905 9.23735C22.1905 7.69175 21.5727 6.20946 20.473 5.11656C19.3733 4.02365 17.8819 3.40967 16.3267 3.40967ZM16.3267 13.2344C15.5312 13.2344 14.7537 13 14.0923 12.5608C13.4309 12.1216 12.9154 11.4973 12.611 10.767C12.3066 10.0366 12.2269 9.23292 12.3821 8.45756C12.5373 7.6822 12.9203 6.96999 13.4828 6.41099C14.0453 5.85198 14.7619 5.4713 15.5421 5.31707C16.3222 5.16284 17.1309 5.242 17.8658 5.54453C18.6007 5.84706 19.2288 6.35937 19.6707 7.01669C20.1127 7.67401 20.3485 8.4468 20.3485 9.23735C20.3485 10.2974 19.9248 11.3141 19.1706 12.0637C18.4163 12.8133 17.3933 13.2344 16.3267 13.2344Z" fill="#373737"/>
</g>
<defs>
<clipPath id="clip0_46_2141">
<rect width="44" height="44" fill="white"/>
</clipPath>
</defs>
</svg>
