<svg width="14" height="14" viewBox="0 0 14 14" fill="none" xmlns="http://www.w3.org/2000/svg">
<path fill-rule="evenodd" clip-rule="evenodd" d="M1.99967 1.66659C1.81558 1.66659 1.66634 1.81583 1.66634 1.99992V11.9999C1.66634 12.184 1.81557 12.3333 1.99967 12.3333H11.9997C12.1838 12.3333 12.333 12.184 12.333 11.9999V8.82449C12.333 8.4563 12.6315 8.15782 12.9997 8.15782C13.3679 8.15782 13.6663 8.4563 13.6663 8.82449V11.9999C13.6663 12.9204 12.9202 13.6666 11.9997 13.6666H1.99967C1.07921 13.6666 0.333008 12.9204 0.333008 11.9999V1.99992C0.333008 1.07945 1.0792 0.333252 1.99967 0.333252H4.99967C5.36786 0.333252 5.66634 0.631729 5.66634 0.999919C5.66634 1.36811 5.36786 1.66659 4.99967 1.66659H1.99967ZM7.66634 0.999919C7.66634 0.631729 7.96482 0.333252 8.33301 0.333252H12.9997C13.3679 0.333252 13.6663 0.631729 13.6663 0.999919V5.66659C13.6663 6.03478 13.3679 6.33325 12.9997 6.33325C12.6315 6.33325 12.333 6.03478 12.333 5.66659V2.60929L8.07101 6.87129C7.81066 7.13164 7.38855 7.13164 7.1282 6.87129C6.86785 6.61094 6.86785 6.18883 7.1282 5.92848L11.3901 1.66659H8.33301C7.96482 1.66659 7.66634 1.36811 7.66634 0.999919Z" fill="#7CC06E"/>
</svg>
