<svg width="16" height="16" viewBox="0 0 16 16" fill="none" xmlns="http://www.w3.org/2000/svg">
<path fill-rule="evenodd" clip-rule="evenodd" d="M2.33325 6.33329C2.33325 3.20367 4.8703 0.666626 7.99992 0.666626C11.1295 0.666626 13.6666 3.20367 13.6666 6.33329C13.6666 8.73622 12.2935 10.9714 11.0178 12.5448C10.3696 13.3442 9.72314 14.0013 9.23892 14.4586C8.99639 14.6876 8.79349 14.8676 8.65001 14.9913C8.57824 15.0531 8.52125 15.101 8.48151 15.1339C8.46164 15.1504 8.44607 15.1631 8.43512 15.1721L8.42218 15.1825L8.41837 15.1856L8.41715 15.1866C8.41698 15.1867 8.41638 15.1872 7.99992 14.6666C7.58346 15.1872 7.5833 15.1871 7.58313 15.1869L7.58146 15.1856L7.57766 15.1825L7.56472 15.1721C7.55376 15.1631 7.5382 15.1504 7.51832 15.1339C7.47859 15.101 7.4216 15.0531 7.34983 14.9913C7.20635 14.8676 7.00345 14.6876 6.76092 14.4586C6.2767 14.0013 5.63019 13.3442 4.98208 12.5448C3.70633 10.9714 2.33325 8.73622 2.33325 6.33329ZM7.99992 14.6666L7.58313 15.1869C7.82661 15.3817 8.1729 15.382 8.41638 15.1872L7.99992 14.6666ZM7.99992 13.7873C8.09511 13.7018 8.20389 13.6021 8.32342 13.4892C8.7767 13.0611 9.38019 12.4474 9.98208 11.7051C11.2063 10.1952 12.3333 8.2637 12.3333 6.33329C12.3333 3.94005 10.3932 1.99996 7.99992 1.99996C5.60668 1.99996 3.66659 3.94005 3.66659 6.33329C3.66659 8.2637 4.7935 10.1952 6.01776 11.7051C6.61965 12.4474 7.22314 13.0611 7.67642 13.4892C7.79595 13.6021 7.90473 13.7018 7.99992 13.7873ZM5.33325 6.33329C5.33325 4.86054 6.52716 3.66663 7.99992 3.66663C9.47268 3.66663 10.6666 4.86054 10.6666 6.33329C10.6666 7.80605 9.47268 8.99996 7.99992 8.99996C6.52716 8.99996 5.33325 7.80605 5.33325 6.33329ZM7.99992 4.99996C7.26354 4.99996 6.66659 5.59692 6.66659 6.33329C6.66659 7.06967 7.26354 7.66663 7.99992 7.66663C8.7363 7.66663 9.33325 7.06967 9.33325 6.33329C9.33325 5.59692 8.7363 4.99996 7.99992 4.99996Z" fill="#373737"/>
</svg>
