<svg width="196" height="36" viewBox="0 0 196 36" fill="none" xmlns="http://www.w3.org/2000/svg">
<g clip-path="url(#clip0_2137_512)">
<path d="M22.2585 16.5825C20.3172 21.825 -0.406062 41.1225 1.91439 26.25C2.68021 21.1725 5.95412 13.8488 8.8834 9.67501C11.1809 6.40126 15.2015 6.57001 18.6668 8.90251C21.6229 10.8938 23.3575 13.6238 22.2585 16.5825Z" fill="#FFA64D"/>
<path d="M18.5445 11.5688C18.8509 11.9218 19.0655 12.3423 19.1698 12.7942C19.2742 13.2462 19.2652 13.7161 19.1436 14.1639C19.0221 14.6117 18.7916 15.024 18.4719 15.3655C18.1521 15.7071 17.7527 15.9677 17.3077 16.1251C15.8679 16.5713 11.3457 18.7838 7.13753 21.7763C6.9065 21.9412 6.62757 22.0291 6.34172 22.0273C6.05586 22.0255 5.77814 21.9339 5.54935 21.766C5.32055 21.5982 5.15275 21.3629 5.07057 21.0948C4.98839 20.8267 4.99618 20.5398 5.09278 20.2763C6.28827 16.8093 7.92195 13.5024 9.95577 10.4325C10.2849 9.91927 10.7436 9.49776 11.2875 9.20873C11.8315 8.91971 12.4424 8.77292 13.0612 8.78255C15.1059 8.78255 17.3383 10.2075 18.5445 11.5688Z" fill="#FFA64D"/>
<path d="M15.2553 12.9862C15.4091 12.8068 15.5179 12.5947 15.5729 12.3668C15.628 12.1389 15.6277 11.9015 15.5723 11.6737C15.5168 11.4459 15.4077 11.234 15.2536 11.0549C15.0994 10.8758 14.9046 10.7346 14.6848 10.6424C14.1764 10.4152 13.6274 10.2878 13.0689 10.2674C12.6984 10.257 12.3318 10.3444 12.0077 10.5206C11.6836 10.6968 11.414 10.9552 11.2271 11.2687C10.6441 12.1081 10.1085 12.9782 9.62267 13.8749C9.49997 14.0957 9.43794 14.3439 9.44263 14.5952C9.44733 14.8466 9.51859 15.0924 9.64945 15.3086C9.78031 15.5248 9.96627 15.7041 10.1891 15.8288C10.412 15.9535 10.6641 16.0193 10.9207 16.0199C11.4681 16.023 12.0092 15.9064 12.5047 15.6787C13.0001 15.451 13.4375 15.1179 13.7849 14.7037C14.3057 14.0662 14.815 13.4999 15.2553 12.9862Z" fill="#FFDD71"/>
<path d="M18.6669 8.90251C15.2207 6.57001 11.181 6.40126 8.88351 9.67501C4.69827 15.6375 -0.670165 29.0625 2.86795 31.41C6.92299 34.125 20.6772 20.8013 22.2586 16.5863C22.2586 16.4588 24.1656 12.6038 18.6669 8.90251ZM5.09267 20.3025C6.2861 16.8264 7.91983 13.5105 9.95566 10.4325C10.2848 9.91923 10.7435 9.49773 11.2874 9.2087C11.8314 8.91967 12.4423 8.77288 13.0611 8.78251C15.0982 8.78251 17.3306 10.2075 18.5367 11.5688C18.8433 11.9213 19.0582 12.3412 19.1631 12.7928C19.2679 13.2443 19.2596 13.714 19.1388 14.1617C19.018 14.6094 18.7884 15.0218 18.4695 15.3637C18.1506 15.7056 17.752 15.9668 17.3076 16.125C15.8678 16.5713 11.3456 18.7838 7.13742 21.7763C6.90818 21.936 6.63329 22.0208 6.35194 22.0186C6.07059 22.0164 5.79713 21.9273 5.57052 21.764C5.34392 21.6007 5.17573 21.3715 5.08993 21.109C5.00412 20.8466 5.00508 20.5644 5.09267 20.3025Z" fill="#FF6F4D"/>
<path d="M21.9831 17.2125C19.655 21.8888 4.61801 36.1688 2.10228 30.4538C1.95548 29.747 1.99786 29.015 2.22532 28.329C2.45277 27.643 2.85756 27.0263 3.40035 26.5388C7.71578 22.6163 14.1449 19.0388 17.6409 17.6738C19.0113 17.1081 20.5208 16.9478 21.9831 17.2125Z" fill="#EB474D"/>
<path d="M27.0181 6.57381C26.9461 6.16232 26.7812 5.77176 26.5355 5.43062C26.2898 5.08948 25.9694 4.80635 25.5977 4.6019C25.2261 4.39745 24.8125 4.27682 24.3871 4.24882C23.9618 4.22082 23.5355 4.28616 23.1392 4.44006L21.2936 5.15631L21.3165 3.21381C21.3213 2.79638 21.2309 2.38317 21.0519 2.00431C20.8729 1.62546 20.6098 1.29051 20.2818 1.0239C19.9538 0.75729 19.5691 0.56574 19.1559 0.463221C18.7427 0.360702 18.3114 0.349798 17.8933 0.431306C17.4755 0.512764 17.0816 0.684456 16.7401 0.933876C16.3987 1.1833 16.1183 1.50416 15.9195 1.87311C15.7207 2.24205 15.6084 2.64978 15.5908 3.0666C15.5732 3.48341 15.6508 3.89882 15.8179 4.28256L17.2309 7.56006C17.5487 8.28756 19.5858 9.69006 20.4397 9.72006L24.0773 9.85131C24.5043 9.86923 24.9299 9.79324 25.323 9.6289C25.716 9.46457 26.0664 9.21608 26.3485 8.90169C26.6306 8.5873 26.8372 8.21501 26.9531 7.81216C27.0689 7.40932 27.0912 6.98617 27.0181 6.57381Z" fill="#35C08C"/>
<path d="M10.3386 11.9775C10.1663 11.9775 10.2353 11.9775 8.21348 10.6275C8.13107 10.5707 8.0748 10.4845 8.05689 10.3874C8.03897 10.2903 8.06084 10.1902 8.11777 10.1088C8.17469 10.0274 8.26208 9.97124 8.36099 9.9525C8.4599 9.93377 8.56236 9.95396 8.64617 10.0087L10.5607 11.295C10.6278 11.3408 10.6781 11.4064 10.7043 11.4822C10.7305 11.558 10.7312 11.6401 10.7064 11.7163C10.6816 11.7926 10.6325 11.8591 10.5663 11.9061C10.5002 11.9531 10.4204 11.9781 10.3386 11.9775Z" fill="#EB474D"/>
<path d="M15.55 15.4762C15.3777 15.4762 15.5768 15.5737 12.4867 13.5074C12.4447 13.4796 12.4087 13.4439 12.3809 13.4023C12.3531 13.3607 12.3341 13.3142 12.3248 13.2653C12.3155 13.2165 12.3163 13.1663 12.327 13.1178C12.3377 13.0692 12.3581 13.0232 12.3871 12.9824C12.4451 12.901 12.5337 12.8454 12.6335 12.8278C12.7332 12.8102 12.8361 12.8321 12.9194 12.8887L15.7491 14.7937C15.8147 14.8383 15.8644 14.902 15.8913 14.9757C15.9181 15.0494 15.9208 15.1295 15.8988 15.2047C15.8769 15.2799 15.8314 15.3466 15.7689 15.3953C15.7063 15.4439 15.6298 15.4722 15.55 15.4762Z" fill="#FF6F4D"/>
<path d="M10.4383 20.655C10.2584 20.655 10.2737 20.625 8.90668 19.7175C8.86254 19.6907 8.82443 19.6553 8.79467 19.6136C8.76492 19.5719 8.74415 19.5247 8.73363 19.4748C8.72311 19.425 8.72305 19.3736 8.73346 19.3238C8.74387 19.2739 8.76454 19.2266 8.79419 19.1849C8.82385 19.1431 8.86188 19.1076 8.90597 19.0807C8.95006 19.0538 8.99928 19.0359 9.05064 19.0282C9.10201 19.0205 9.15443 19.0231 9.20473 19.0359C9.25502 19.0487 9.30214 19.0713 9.3432 19.1025L10.6375 19.9725C10.7031 20.0172 10.7528 20.0808 10.7796 20.1545C10.8065 20.2282 10.8091 20.3083 10.7872 20.3835C10.7652 20.4588 10.7198 20.5254 10.6572 20.5741C10.5947 20.6228 10.5181 20.6511 10.4383 20.655ZM6.89256 18.27C6.70877 18.27 6.77003 18.27 4.80569 16.9425C4.72191 16.8863 4.66436 16.7998 4.64569 16.7021C4.62702 16.6043 4.64876 16.5033 4.70613 16.4213C4.76351 16.3392 4.85183 16.2829 4.95164 16.2646C5.05145 16.2463 5.1546 16.2676 5.23838 16.3238L7.11082 17.5875C7.17758 17.6331 7.22774 17.6984 7.25404 17.7739C7.28034 17.8493 7.2814 17.931 7.25707 18.0071C7.23274 18.0832 7.18429 18.1497 7.11874 18.197C7.05319 18.2442 6.97397 18.2698 6.89256 18.27Z" fill="#EB474D"/>
<path d="M7.56635 26.0062C7.39404 26.0062 7.79993 26.2425 2.58849 22.7362C2.54155 22.7108 2.50061 22.6759 2.4683 22.634C2.436 22.592 2.41306 22.5439 2.40096 22.4927C2.38887 22.4415 2.3879 22.3884 2.39811 22.3368C2.40832 22.2852 2.42949 22.2363 2.46024 22.1933C2.49099 22.1502 2.53064 22.114 2.57661 22.0869C2.62258 22.0598 2.67386 22.0425 2.7271 22.036C2.78035 22.0296 2.83439 22.0342 2.88571 22.0495C2.93703 22.0648 2.98449 22.0906 3.02501 22.125L7.78078 25.3275C7.84568 25.3735 7.89423 25.4382 7.9196 25.5126C7.94497 25.587 7.94589 25.6673 7.92222 25.7422C7.89854 25.8171 7.85148 25.8829 7.78764 25.9303C7.72381 25.9776 7.64641 26.0042 7.56635 26.0062Z" fill="#CD294D"/>
<path d="M18.1958 12.555C18.035 12.555 18.0886 12.555 16.5071 11.4975C16.4654 11.4695 16.4297 11.4336 16.4021 11.3921C16.3745 11.3505 16.3556 11.304 16.3463 11.2552C16.3371 11.2065 16.3377 11.1564 16.3482 11.1079C16.3587 11.0594 16.3789 11.0134 16.4076 10.9725C16.4362 10.9317 16.4728 10.8967 16.5153 10.8697C16.5577 10.8427 16.6052 10.8241 16.655 10.8151C16.7048 10.806 16.7559 10.8066 16.8054 10.8169C16.8549 10.8272 16.9019 10.847 16.9436 10.875L18.414 11.865C18.4843 11.9094 18.5378 11.9751 18.5664 12.052C18.5949 12.129 18.597 12.213 18.5723 12.2912C18.5475 12.3694 18.4973 12.4375 18.4294 12.4851C18.3614 12.5328 18.2793 12.5573 18.1958 12.555Z" fill="#FF6F4D"/>
<path d="M10.3695 16.0912C10.201 16.0912 10.4844 16.245 6.47911 13.5637C6.39669 13.507 6.34043 13.4207 6.32251 13.3236C6.3046 13.2266 6.32647 13.1265 6.38339 13.0451C6.44032 12.9637 6.5277 12.9075 6.62661 12.8888C6.72552 12.87 6.82799 12.8902 6.9118 12.945L10.5878 15.405C10.6562 15.45 10.708 15.5155 10.7354 15.5917C10.7628 15.6679 10.7643 15.7507 10.7398 15.8278C10.7153 15.9049 10.666 15.9722 10.5993 16.0197C10.5326 16.0671 10.452 16.0922 10.3695 16.0912Z" fill="#EB474D"/>
<path d="M18.6668 8.90254C18.2148 8.59974 17.8833 8.15339 17.7284 7.6389C17.5735 7.12442 17.6047 6.57334 17.8168 6.07879L19.4059 2.32879C19.5922 1.89197 19.8756 1.50134 20.2356 1.18534C20.5955 0.869337 21.0228 0.63592 21.4865 0.502081C21.9502 0.368242 22.4385 0.337351 22.9159 0.411656C23.3933 0.485961 23.8477 0.663592 24.2462 0.931617C24.6446 1.19964 24.977 1.55131 25.2192 1.96103C25.4614 2.37074 25.6072 2.82818 25.646 3.30005C25.6849 3.77192 25.6158 4.24633 25.4438 4.68875C25.2718 5.13117 25.0012 5.53046 24.6518 5.85754L21.6612 8.65129C21.2676 9.02376 20.755 9.25208 20.2096 9.29784C19.6643 9.3436 19.1194 9.20401 18.6668 8.90254Z" fill="#99D98C"/>
<path d="M5.46427 28.965C5.29579 28.965 5.25366 28.9012 4.52996 28.4137C4.44618 28.3556 4.38943 28.2672 4.37219 28.168C4.35496 28.0688 4.37865 27.967 4.43806 27.885C4.49747 27.8029 4.58773 27.7474 4.68898 27.7305C4.79023 27.7136 4.89419 27.7368 4.97797 27.795L5.69784 28.2787C5.76763 28.3244 5.82017 28.3913 5.84737 28.469C5.87457 28.5468 5.87492 28.6311 5.84838 28.7091C5.82184 28.7871 5.76987 28.8544 5.70047 28.9006C5.63106 28.9468 5.54808 28.9695 5.46427 28.965Z" fill="#302D3D"/>
<path d="M23.794 32.5162C16.6451 35.3287 2.38921 37.3387 0.819272 33.5137C-0.75067 29.6887 10.9703 21.4837 18.1154 18.675C21.8756 17.1937 25.1304 19.5 26.7003 23.3362C28.2703 27.1725 27.8606 30.915 23.794 32.5162Z" fill="#FF6F4D"/>
<path d="M10.6755 26.5462C10.6762 26.1595 10.5666 25.7802 10.3592 25.4511C10.1517 25.122 9.85452 24.8561 9.50111 24.6835C9.14771 24.5108 8.75211 24.4382 8.35886 24.4738C7.9656 24.5094 7.59029 24.6518 7.2752 24.885C-0.214569 30.4725 -2.56182 35.4187 6.8272 35.625C7.32941 35.6345 7.82852 35.5457 8.29527 35.3639C8.76202 35.1821 9.18703 34.9109 9.54541 34.5662C9.9038 34.2215 10.1883 33.8103 10.3824 33.3565C10.5764 32.9028 10.6761 32.4157 10.6755 31.9237V26.5462Z" fill="#EB474D"/>
<path d="M23.7405 28.9238C18.0964 31.1438 7.14124 33.4763 6.27969 31.3763C5.41814 29.2763 14.9565 23.535 20.6006 21.315C23.572 20.145 25.8389 21.2325 26.7004 23.3363C27.562 25.44 26.934 27.66 23.7405 28.9238Z" fill="#FFA64D"/>
<path d="M26.7006 23.3363C25.1383 19.5263 20.2944 20.955 20.2944 24.2738V26.6663C20.2968 27.0618 20.3975 27.4507 20.5879 27.7995C20.7783 28.1483 21.0526 28.4464 21.3871 28.668C21.7216 28.8896 22.1062 29.028 22.5076 29.0713C22.909 29.1145 23.3152 29.0613 23.6909 28.9163C26.421 27.87 27.7497 25.8938 26.7006 23.3363Z" fill="#FFDD71"/>
<path d="M34.9713 25.9237C35.1441 25.5411 35.2273 25.1254 35.2146 24.7071C35.2019 24.2889 35.0937 23.8787 34.8979 23.5068C34.7022 23.1349 34.4238 22.8107 34.0833 22.5579C33.7429 22.3051 33.3489 22.1303 32.9303 22.0462L31.0158 21.6412L32.1339 20.0325C32.373 19.687 32.5304 19.2936 32.5945 18.881C32.6587 18.4683 32.628 18.0469 32.5047 17.6474C32.3815 17.2478 32.1687 16.8803 31.882 16.5715C31.5952 16.2627 31.2418 16.0205 30.8473 15.8625C30.4534 15.7037 30.0283 15.6331 29.6029 15.6556C29.1776 15.6781 28.7627 15.7932 28.3886 15.9926C28.0144 16.192 27.6904 16.4706 27.4401 16.8081C27.1897 17.1456 27.0195 17.5336 26.9416 17.9437L26.2791 21.4462C26.1336 22.2262 27.045 24.495 27.7304 24.9862L30.6826 27.0675C31.0288 27.3098 31.4257 27.4737 31.8445 27.5472C32.2633 27.6208 32.6936 27.6021 33.1042 27.4926C33.5148 27.3831 33.8953 27.1856 34.2182 26.9142C34.5412 26.6428 34.7984 26.3045 34.9713 25.9237Z" fill="#35C08C"/>
<path d="M18.2498 21.4538C18.1731 21.4539 18.0982 21.4314 18.0347 21.3893C17.9712 21.3471 17.9221 21.2873 17.8937 21.2175L17.0322 19.125C17.0096 19.0789 16.9969 19.0287 16.9949 18.9775C16.9929 18.9264 17.0016 18.8754 17.0205 18.8277C17.0394 18.7799 17.068 18.7365 17.1047 18.7C17.1413 18.6636 17.1852 18.6348 17.2337 18.6156C17.2821 18.5964 17.334 18.5871 17.3863 18.5882C17.4385 18.5894 17.49 18.601 17.5375 18.6224C17.585 18.6438 17.6275 18.6745 17.6624 18.7125C17.6973 18.7506 17.7239 18.7953 17.7405 18.8438L18.6059 20.9475C18.6275 21.0041 18.6348 21.0649 18.6273 21.1247C18.6197 21.1846 18.5975 21.2418 18.5626 21.2915C18.5276 21.3412 18.4809 21.3819 18.4265 21.4102C18.372 21.4384 18.3114 21.4534 18.2498 21.4538Z" fill="#EB474D"/>
<path d="M20.6009 27.1838C20.5242 27.1839 20.4492 27.1614 20.3857 27.1193C20.3222 27.0771 20.2731 27.0173 20.2447 26.9475L18.9658 23.8275C18.9419 23.7811 18.9281 23.7304 18.9253 23.6785C18.9225 23.6266 18.9308 23.5746 18.9496 23.526C18.9683 23.4774 18.9972 23.4331 19.0344 23.396C19.0716 23.3589 19.1162 23.3298 19.1655 23.3105C19.2148 23.2912 19.2676 23.2821 19.3207 23.2839C19.3737 23.2857 19.4258 23.2982 19.4736 23.3207C19.5215 23.3433 19.564 23.3753 19.5985 23.4147C19.6331 23.4542 19.6588 23.5003 19.6742 23.55L20.957 26.67C20.9801 26.727 20.9887 26.7886 20.9819 26.8495C20.9751 26.9104 20.9532 26.9687 20.918 27.0194C20.8829 27.0701 20.8356 27.1116 20.7803 27.1402C20.725 27.1689 20.6634 27.1839 20.6009 27.1838Z" fill="#FF6F4D"/>
<path d="M23.055 33.1688C22.9783 33.1689 22.9034 33.1464 22.8399 33.1042C22.7764 33.0621 22.7273 33.0023 22.6989 32.9325L21.6421 30.375C21.604 30.2825 21.605 30.179 21.6448 30.0872C21.6847 29.9955 21.7601 29.923 21.8546 29.8857C21.949 29.8484 22.0547 29.8493 22.1484 29.8884C22.2422 29.9274 22.3162 30.0013 22.3543 30.0938L23.4111 32.6738C23.4304 32.7297 23.436 32.7892 23.4273 32.8476C23.4187 32.906 23.3961 32.9616 23.3614 33.0098C23.3267 33.0581 23.2809 33.0976 23.2276 33.1252C23.1744 33.1528 23.1152 33.1678 23.055 33.1688ZM13.2295 28.2713C13.1532 28.2717 13.0786 28.2497 13.0152 28.2083C12.9517 28.1669 12.9023 28.1079 12.8734 28.0388L10.6103 22.5C10.5865 22.4536 10.5727 22.4028 10.5699 22.3509C10.5671 22.299 10.5753 22.2471 10.5941 22.1985C10.6129 22.1499 10.6418 22.1056 10.6789 22.0685C10.7161 22.0314 10.7608 22.0023 10.81 21.983C10.8593 21.9637 10.9122 21.9546 10.9652 21.9564C11.0182 21.9581 11.0703 21.9707 11.1182 21.9932C11.166 22.0157 11.2085 22.0478 11.2431 22.0872C11.2776 22.1267 11.3034 22.1728 11.3187 22.2225L13.5818 27.75C13.6064 27.807 13.6163 27.8691 13.6105 27.9307C13.6046 27.9924 13.5834 28.0516 13.5485 28.1033C13.5136 28.1549 13.4662 28.1972 13.4105 28.2265C13.3549 28.2559 13.2927 28.2712 13.2295 28.2713ZM16.0132 35.0625C15.9366 35.0626 15.8616 35.0401 15.7981 34.998C15.7346 34.9559 15.6855 34.8961 15.6571 34.8263L14.3476 31.6275C14.3237 31.5811 14.3099 31.5303 14.3071 31.4784C14.3043 31.4265 14.3126 31.3746 14.3313 31.326C14.3501 31.2774 14.379 31.2331 14.4162 31.196C14.4533 31.1589 14.498 31.1298 14.5473 31.1105C14.5965 31.0912 14.6494 31.0821 14.7024 31.0839C14.7555 31.0856 14.8076 31.0982 14.8554 31.1207C14.9032 31.1432 14.9458 31.1753 14.9803 31.2147C15.0148 31.2542 15.0406 31.3003 15.056 31.35L16.3694 34.545C16.3933 34.6021 16.4025 34.6641 16.3961 34.7256C16.3897 34.787 16.3679 34.8459 16.3327 34.8971C16.2975 34.9483 16.2499 34.9902 16.1942 35.019C16.1384 35.0479 16.0763 35.0628 16.0132 35.0625Z" fill="#EB474D"/>
<path d="M7.99885 31.6237C7.92479 31.6208 7.85318 31.597 7.79268 31.5551C7.73219 31.5131 7.68542 31.4549 7.65806 31.3874L6.54761 28.7137C6.51004 28.6192 6.51233 28.514 6.55398 28.4211C6.59563 28.3283 6.67322 28.2555 6.7697 28.2187C6.86618 28.1819 6.97363 28.1841 7.06842 28.2249C7.16321 28.2657 7.23757 28.3417 7.27515 28.4362L8.35496 31.1249C8.375 31.1811 8.38112 31.241 8.37284 31.2999C8.36456 31.3588 8.3421 31.4149 8.30732 31.4636C8.27253 31.5123 8.22643 31.5523 8.17279 31.5801C8.11916 31.6079 8.05954 31.6229 7.99885 31.6237ZM9.75642 35.9137C9.67973 35.9138 9.60479 35.8913 9.54129 35.8492C9.4778 35.807 9.42869 35.7472 9.40031 35.6774L8.65746 33.8662C8.61938 33.7737 8.62037 33.6702 8.66023 33.5784C8.70008 33.4866 8.77553 33.4141 8.86998 33.3768C8.96442 33.3395 9.07013 33.3405 9.16384 33.3795C9.25755 33.4186 9.3316 33.4924 9.36968 33.5849L10.1125 35.3962C10.1365 35.4533 10.1457 35.5153 10.1393 35.5767C10.1329 35.6382 10.1111 35.6971 10.0759 35.7483C10.0406 35.7995 9.99306 35.8414 9.93733 35.8702C9.8816 35.8991 9.81946 35.914 9.75642 35.9137Z" fill="#CD294D"/>
<path d="M24.4565 26.1862C24.3798 26.1863 24.3049 26.1638 24.2414 26.1217C24.1779 26.0796 24.1288 26.0198 24.1004 25.95L23.4341 24.3262C23.396 24.2337 23.397 24.1302 23.4369 24.0384C23.4767 23.9467 23.5522 23.8742 23.6466 23.8369C23.7411 23.7996 23.8468 23.8005 23.9405 23.8396C24.0342 23.8786 24.1082 23.9525 24.1463 24.045L24.8126 25.6687C24.8366 25.7258 24.8457 25.7878 24.8393 25.8493C24.833 25.9107 24.8112 25.9696 24.7759 26.0208C24.7407 26.072 24.6931 26.1139 24.6374 26.1427C24.5817 26.1716 24.5195 26.1865 24.4565 26.1862Z" fill="#FF6F4D"/>
<path d="M4.59479 32.9512C4.5181 32.9513 4.44315 32.9288 4.37966 32.8867C4.31617 32.8446 4.26705 32.7847 4.23868 32.715L3.9132 31.92C3.87713 31.8745 3.85221 31.8216 3.84037 31.7652C3.82853 31.7089 3.8301 31.6506 3.84494 31.5949C3.85979 31.5393 3.88752 31.4877 3.92598 31.4442C3.96444 31.4007 4.01261 31.3665 4.06675 31.3441C4.12089 31.3218 4.17956 31.3119 4.23821 31.3154C4.29686 31.3188 4.35392 31.3354 4.40497 31.3639C4.45602 31.3923 4.49969 31.4319 4.53261 31.4796C4.56552 31.5273 4.5868 31.5817 4.59479 31.6387L4.92026 32.4337C4.94345 32.4885 4.95303 32.5479 4.94821 32.6071C4.94339 32.6662 4.92431 32.7234 4.89254 32.7739C4.86077 32.8244 4.81721 32.8668 4.76545 32.8976C4.71369 32.9285 4.6552 32.9468 4.59479 32.9512Z" fill="#CD294D"/>
<path d="M26.6965 23.3363C26.4919 22.8403 26.4669 22.2907 26.6258 21.779C26.7846 21.2673 27.1177 20.8242 27.5695 20.5238L31.0157 18.2738C31.4178 18.0109 31.8747 17.8391 32.3531 17.771C32.8315 17.7029 33.3194 17.7402 33.7813 17.88C34.2431 18.0199 34.6673 18.2589 35.0229 18.5796C35.3786 18.9003 35.6567 19.2947 35.837 19.734C36.0174 20.1732 36.0954 20.6464 36.0655 21.1189C36.0355 21.5914 35.8983 22.0515 35.6639 22.4656C35.4295 22.8796 35.1037 23.2373 34.7103 23.5124C34.3169 23.7876 33.8658 23.9734 33.3898 24.0563L29.3233 24.75C28.7864 24.8439 28.2328 24.7549 27.7548 24.4976C27.2769 24.2404 26.9033 23.8305 26.6965 23.3363Z" fill="#99D98C"/>
</g>
<path d="M55.6304 6.48809C55.6304 6.47369 55.5201 6.44489 55.2995 6.40169C55.079 6.34409 54.8069 6.28649 54.4835 6.22889C54.16 6.17129 53.8365 6.14249 53.513 6.14249C52.2779 6.14249 51.3295 6.52409 50.6678 7.28729C50.0061 8.05049 49.6753 9.15929 49.6753 10.6137C49.6753 12.0825 50.0135 13.2057 50.6899 13.9833C51.3662 14.7609 52.3073 15.1497 53.513 15.1497C53.8806 15.1497 54.2261 15.1065 54.5496 15.0201C54.8731 14.9193 55.1304 14.8257 55.3216 14.7393C55.5274 14.6529 55.6304 14.6097 55.6304 14.6097L56.1156 12.6657L58.4976 13.2057L57.7918 16.4673C57.7918 16.4673 57.608 16.5537 57.2404 16.7265C56.8875 16.8849 56.3876 17.0505 55.7406 17.2233C55.0937 17.3961 54.3511 17.4825 53.513 17.4825C52.1749 17.4825 50.9913 17.2449 49.962 16.7697C48.9475 16.2801 48.1534 15.5313 47.58 14.5233C47.0065 13.5009 46.7198 12.1977 46.7198 10.6137C46.7198 9.17369 46.9992 7.94969 47.5579 6.94169C48.1167 5.93369 48.9033 5.16329 49.9179 4.63049C50.9472 4.08329 52.1382 3.80969 53.4909 3.80969C54.4026 3.80969 55.1819 3.90329 55.8289 4.09049C56.4905 4.27769 56.9905 4.47209 57.3286 4.67369C57.6815 4.86089 57.858 4.95449 57.858 4.95449L58.5197 8.19449L56.1156 8.71289L55.6304 6.48809Z" fill="#FF6F4D"/>
<path d="M72.0953 3.80969C73.3893 3.80969 74.5288 4.07609 75.514 4.60889C76.5138 5.12729 77.2931 5.89049 77.8519 6.89849C78.4106 7.90649 78.69 9.15209 78.69 10.6353C78.69 12.1041 78.4106 13.3497 77.8519 14.3721C77.2931 15.3945 76.5212 16.1721 75.536 16.7049C74.5509 17.2233 73.4113 17.4825 72.1174 17.4825C70.8382 17.4825 69.6986 17.2233 68.6987 16.7049C67.7136 16.1721 66.9416 15.3945 66.3829 14.3721C65.8241 13.3497 65.5448 12.1041 65.5448 10.6353C65.5448 9.15209 65.8241 7.90649 66.3829 6.89849C66.9416 5.89049 67.7136 5.12729 68.6987 4.60889C69.6839 4.07609 70.8161 3.80969 72.0953 3.80969ZM72.1174 6.14249C70.9117 6.14249 70.0074 6.52409 69.4045 7.28729C68.8017 8.03609 68.5002 9.15209 68.5002 10.6353C68.5002 12.1185 68.8017 13.2417 69.4045 14.0049C70.0074 14.7681 70.9117 15.1497 72.1174 15.1497C73.3231 15.1497 74.2274 14.7681 74.8302 14.0049C75.4478 13.2417 75.7566 12.1185 75.7566 10.6353C75.7566 9.15209 75.4552 8.03609 74.8523 7.28729C74.2494 6.52409 73.3378 6.14249 72.1174 6.14249Z" fill="#FF6F4D"/>
<path d="M80.7564 4.28489H90.4609L91.8284 8.23769L89.4904 9.01529L88.6744 6.70409H85.6748V14.5881H87.7701V17.0073H80.7343V14.5881H82.8517V6.70409H80.7564V4.28489Z" fill="#FF6F4D"/>
<path d="M99.6435 3.80969C100.937 3.80969 102.077 4.07609 103.062 4.60889C104.062 5.12729 104.841 5.89049 105.4 6.89849C105.959 7.90649 106.238 9.15209 106.238 10.6353C106.238 12.1041 105.959 13.3497 105.4 14.3721C104.841 15.3945 104.069 16.1721 103.084 16.7049C102.099 17.2233 100.96 17.4825 99.6656 17.4825C98.3863 17.4825 97.2468 17.2233 96.2469 16.7049C95.2618 16.1721 94.4898 15.3945 93.9311 14.3721C93.3723 13.3497 93.0929 12.1041 93.0929 10.6353C93.0929 9.15209 93.3723 7.90649 93.9311 6.89849C94.4898 5.89049 95.2618 5.12729 96.2469 4.60889C97.2321 4.07609 98.3643 3.80969 99.6435 3.80969ZM99.6656 6.14249C98.4599 6.14249 97.5556 6.52409 96.9527 7.28729C96.3498 8.03609 96.0484 9.15209 96.0484 10.6353C96.0484 12.1185 96.3498 13.2417 96.9527 14.0049C97.5556 14.7681 98.4599 15.1497 99.6656 15.1497C100.871 15.1497 101.776 14.7681 102.378 14.0049C102.996 13.2417 103.305 12.1185 103.305 10.6353C103.305 9.15209 103.003 8.03609 102.4 7.28729C101.798 6.52409 100.886 6.14249 99.6656 6.14249Z" fill="#FF6F4D"/>
<path d="M113.818 4.28489C115.568 4.28489 116.899 4.64489 117.811 5.36489C118.737 6.08489 119.2 7.12889 119.2 8.49689C119.2 9.90809 118.737 10.9881 117.811 11.7369C116.899 12.4713 115.568 12.8385 113.818 12.8385H112.716V14.5881H114.789V17.0073H108.106V14.5881H109.87V6.70409H108.106V4.28489H113.818ZM113.796 10.7001C115.443 10.7001 116.267 9.98729 116.267 8.56169C116.267 7.32329 115.443 6.70409 113.796 6.70409H112.738V10.7001H113.796Z" fill="#FF6F4D"/>
<path d="M127.127 3.80969C128.421 3.80969 129.561 4.07609 130.546 4.60889C131.546 5.12729 132.325 5.89049 132.884 6.89849C133.442 7.90649 133.722 9.15209 133.722 10.6353C133.722 12.1041 133.442 13.3497 132.884 14.3721C132.325 15.3945 131.553 16.1721 130.568 16.7049C129.583 17.2233 128.443 17.4825 127.149 17.4825C125.87 17.4825 124.73 17.2233 123.73 16.7049C122.745 16.1721 121.973 15.3945 121.415 14.3721C120.856 13.3497 120.577 12.1041 120.577 10.6353C120.577 9.15209 120.856 7.90649 121.415 6.89849C121.973 5.89049 122.745 5.12729 123.73 4.60889C124.716 4.07609 125.848 3.80969 127.127 3.80969ZM127.149 6.14249C125.943 6.14249 125.039 6.52409 124.436 7.28729C123.833 8.03609 123.532 9.15209 123.532 10.6353C123.532 12.1185 123.833 13.2417 124.436 14.0049C125.039 14.7681 125.943 15.1497 127.149 15.1497C128.355 15.1497 129.259 14.7681 129.862 14.0049C130.48 13.2417 130.788 12.1185 130.788 10.6353C130.788 9.15209 130.487 8.03609 129.884 7.28729C129.281 6.52409 128.37 6.14249 127.149 6.14249Z" fill="#FF6F4D"/>
<path d="M136.686 14.5881C137.083 13.9977 137.406 13.3857 137.656 12.7521C137.906 12.1185 138.068 11.3193 138.142 10.3545L138.45 6.70409H136.179V4.28489H148.53V6.70409H146.412V14.5881H148.53V19.9017H146.17V17.0073H137.281V19.9017H134.943V14.5881H136.686ZM139.134 14.5881H143.589V6.70409H140.943L140.546 10.7217C140.457 11.6001 140.288 12.3345 140.038 12.9249C139.788 13.5009 139.487 14.0553 139.134 14.5881Z" fill="#FF6F4D"/>
<path d="M149.764 17.0073V14.5881H151.948L155.168 6.70409H153.447V4.28489H158.741L162.821 14.5881H164.762V17.0073H158.917V14.5881H159.998L159.336 12.7521H155.079L154.418 14.5881H155.631V17.0073H149.764ZM155.741 10.9809H158.719L157.241 6.85529L155.741 10.9809Z" fill="#FF6F4D"/>
<path d="M166.007 3.80969H169.293L168.675 12.6657H166.558L166.007 3.80969ZM167.639 13.7457C168.139 13.7457 168.58 13.9329 168.962 14.3073C169.344 14.6817 169.535 15.1209 169.535 15.6249C169.535 16.1145 169.344 16.5465 168.962 16.9209C168.58 17.2953 168.139 17.4825 167.639 17.4825C167.109 17.4825 166.661 17.2953 166.293 16.9209C165.926 16.5465 165.742 16.1145 165.742 15.6249C165.742 15.1209 165.926 14.6817 166.293 14.3073C166.661 13.9329 167.109 13.7457 167.639 13.7457Z" fill="#FF6F4D"/>
<path d="M46.2897 31.9833C46.1795 31.9833 46.0937 31.9533 46.0324 31.8933C45.9773 31.8333 45.9497 31.7463 45.9497 31.6323V30.2553C45.9497 30.0093 46.0753 29.8863 46.3265 29.8863H46.9238L46.4735 30.0123C46.8289 29.6283 47.0923 29.0943 47.2639 28.4103C47.4354 27.7203 47.5212 26.8503 47.5212 25.8003V24.5673C47.5212 24.4353 47.5549 24.3363 47.6223 24.2703C47.6958 24.1983 47.7999 24.1623 47.9347 24.1623H51.4085C51.5372 24.1623 51.6383 24.1983 51.7118 24.2703C51.7853 24.3363 51.8221 24.4353 51.8221 24.5673V30.1833L51.5188 29.8863H52.3551C52.4776 29.8863 52.5726 29.9193 52.64 29.9853C52.7074 30.0453 52.741 30.1353 52.741 30.2553V31.6323C52.741 31.8663 52.6277 31.9833 52.401 31.9833C52.2846 31.9833 52.1958 31.9533 52.1345 31.8933C52.0794 31.8333 52.0518 31.7463 52.0518 31.6323V30.5073H46.6298V31.6323C46.6298 31.8663 46.5164 31.9833 46.2897 31.9833ZM47.3741 29.8863H51.0593V24.7833H48.2288V25.8543C48.2288 26.8203 48.1583 27.6273 48.0174 28.2753C47.8827 28.9233 47.6682 29.4603 47.3741 29.8863Z" fill="#268561"/>
<path d="M55.5469 30.5883C55.1119 30.5883 54.7351 30.4953 54.4166 30.3093C54.098 30.1233 53.8498 29.8623 53.6722 29.5263C53.5006 29.1843 53.4149 28.7823 53.4149 28.3203C53.4149 27.9723 53.4639 27.6603 53.5619 27.3843C53.6599 27.1023 53.8039 26.8623 53.9938 26.6643C54.1837 26.4663 54.4074 26.3163 54.6647 26.2143C54.9281 26.1063 55.2222 26.0523 55.5469 26.0523C55.9819 26.0523 56.3587 26.1453 56.6773 26.3313C56.9959 26.5173 57.2409 26.7813 57.4125 27.1233C57.5901 27.4593 57.679 27.8583 57.679 28.3203C57.679 28.6683 57.63 28.9803 57.5319 29.2563C57.4339 29.5323 57.2899 29.7723 57.1 29.9763C56.9101 30.1743 56.6834 30.3273 56.42 30.4353C56.1626 30.5373 55.8716 30.5883 55.5469 30.5883ZM55.5469 30.0033C55.8226 30.0033 56.0646 29.9373 56.2729 29.8053C56.4812 29.6733 56.6405 29.4813 56.7508 29.2293C56.8672 28.9773 56.9254 28.6743 56.9254 28.3203C56.9254 27.7743 56.7998 27.3573 56.5486 27.0693C56.3035 26.7813 55.9696 26.6373 55.5469 26.6373C55.2651 26.6373 55.02 26.7033 54.8117 26.8353C54.6095 26.9613 54.4502 27.1503 54.3338 27.4023C54.2236 27.6483 54.1684 27.9543 54.1684 28.3203C54.1684 28.8603 54.294 29.2773 54.5452 29.5713C54.7964 29.8593 55.1303 30.0033 55.5469 30.0033Z" fill="#268561"/>
<path d="M59.2174 30.5703C59.1133 30.5703 59.0306 30.5403 58.9693 30.4803C58.9142 30.4143 58.8866 30.3273 58.8866 30.2193V26.4573C58.8866 26.3733 58.8988 26.3043 58.9233 26.2503C58.9478 26.1903 58.9846 26.1453 59.0336 26.1153C59.0826 26.0853 59.1439 26.0703 59.2174 26.0703C59.2909 26.0703 59.3522 26.0823 59.4012 26.1063C59.4502 26.1243 59.4931 26.1543 59.5299 26.1963C59.5666 26.2323 59.5973 26.2773 59.6218 26.3313L61.1841 29.0583L62.7463 26.3313C62.7708 26.2773 62.8015 26.2323 62.8382 26.1963C62.875 26.1543 62.9179 26.1243 62.9669 26.1063C63.0159 26.0823 63.0741 26.0703 63.1415 26.0703C63.2518 26.0703 63.3345 26.1033 63.3896 26.1693C63.4448 26.2293 63.4723 26.3253 63.4723 26.4573V30.2193C63.4723 30.3273 63.4448 30.4143 63.3896 30.4803C63.3345 30.5403 63.2518 30.5703 63.1415 30.5703C63.0374 30.5703 62.9546 30.5403 62.8934 30.4803C62.8382 30.4143 62.8107 30.3273 62.8107 30.2193V26.9703H63.022L61.4506 29.6703C61.4261 29.7183 61.3924 29.7603 61.3495 29.7963C61.3066 29.8263 61.2515 29.8413 61.1841 29.8413C61.1105 29.8413 61.0523 29.8233 61.0094 29.7873C60.9727 29.7513 60.939 29.7123 60.9084 29.6703L59.3369 26.9703H59.5483V30.2193C59.5483 30.3273 59.5176 30.4143 59.4564 30.4803C59.4012 30.5403 59.3216 30.5703 59.2174 30.5703Z" fill="#268561"/>
<path d="M66.3596 30.5883C66.0533 30.5883 65.7776 30.5313 65.5325 30.4173C65.2936 30.2973 65.1037 30.1353 64.9628 29.9313C64.8218 29.7273 64.7514 29.4993 64.7514 29.2473C64.7514 28.9233 64.8341 28.6683 64.9995 28.4823C65.1711 28.2963 65.4498 28.1643 65.8358 28.0863C66.2279 28.0083 66.7609 27.9693 67.4348 27.9693H67.8484V28.4463H67.444C66.9478 28.4463 66.5557 28.4703 66.2677 28.5183C65.9859 28.5603 65.7868 28.6353 65.6704 28.7433C65.5601 28.8513 65.505 29.0043 65.505 29.2023C65.505 29.4483 65.5907 29.6493 65.7623 29.8053C65.94 29.9613 66.1789 30.0393 66.4791 30.0393C66.7242 30.0393 66.9386 29.9823 67.1224 29.8683C67.3123 29.7543 67.4594 29.5983 67.5635 29.4003C67.6738 29.2023 67.7289 28.9743 67.7289 28.7163V27.6903C67.7289 27.3183 67.6523 27.0513 67.4992 26.8893C67.346 26.7213 67.0948 26.6373 66.7456 26.6373C66.5312 26.6373 66.3167 26.6643 66.1023 26.7183C65.8879 26.7723 65.6612 26.8593 65.4223 26.9793C65.3365 27.0213 65.263 27.0363 65.2017 27.0243C65.1404 27.0063 65.0914 26.9733 65.0547 26.9253C65.0179 26.8773 64.9965 26.8233 64.9903 26.7633C64.9842 26.6973 64.9965 26.6343 65.0271 26.5743C65.0638 26.5143 65.119 26.4663 65.1925 26.4303C65.4621 26.2983 65.7286 26.2023 65.992 26.1423C66.2555 26.0823 66.5067 26.0523 66.7456 26.0523C67.1316 26.0523 67.4502 26.1153 67.7014 26.2413C67.9525 26.3613 68.1394 26.5473 68.2619 26.7993C68.3845 27.0453 68.4457 27.3633 68.4457 27.7533V30.1923C68.4457 30.3123 68.4151 30.4053 68.3538 30.4713C68.2987 30.5373 68.216 30.5703 68.1057 30.5703C67.9893 30.5703 67.9005 30.5373 67.8392 30.4713C67.7779 30.4053 67.7473 30.3123 67.7473 30.1923V29.4903H67.83C67.781 29.7183 67.686 29.9133 67.5451 30.0753C67.4103 30.2373 67.2419 30.3633 67.0397 30.4533C66.8375 30.5433 66.6108 30.5883 66.3596 30.5883Z" fill="#268561"/>
<path d="M70.2843 30.5073C70.1618 30.5073 70.0668 30.4743 69.9994 30.4083C69.932 30.3423 69.8983 30.2493 69.8983 30.1293V26.4393C69.8983 26.3133 69.9289 26.2203 69.9902 26.1603C70.0515 26.1003 70.1403 26.0703 70.2567 26.0703C70.3731 26.0703 70.462 26.1003 70.5232 26.1603C70.5845 26.2203 70.6151 26.3133 70.6151 26.4393V29.9223H72.4807V26.4393C72.4807 26.3133 72.5113 26.2203 72.5726 26.1603C72.6338 26.1003 72.7227 26.0703 72.8391 26.0703C72.9494 26.0703 73.0351 26.1003 73.0964 26.1603C73.1577 26.2203 73.1883 26.3133 73.1883 26.4393V29.9223H75.0539V26.4393C75.0539 26.3133 75.0845 26.2203 75.1458 26.1603C75.2131 26.1003 75.302 26.0703 75.4123 26.0703C75.5287 26.0703 75.6175 26.1003 75.6788 26.1603C75.74 26.2203 75.7707 26.3133 75.7707 26.4393V30.1293C75.7707 30.2493 75.737 30.3423 75.6696 30.4083C75.6022 30.4743 75.5072 30.5073 75.3847 30.5073H70.2843Z" fill="#268561"/>
<path d="M77.6163 30.5703C77.4937 30.5703 77.3988 30.5373 77.3314 30.4713C77.2701 30.4053 77.2395 30.3123 77.2395 30.1923V26.4393C77.2395 26.3133 77.2701 26.2203 77.3314 26.1603C77.3988 26.1003 77.4937 26.0703 77.6163 26.0703C77.7327 26.0703 77.8215 26.1003 77.8828 26.1603C77.9502 26.2203 77.9838 26.3133 77.9838 26.4393V27.9513H80.4192V26.4393C80.4192 26.3133 80.4498 26.2203 80.5111 26.1603C80.5785 26.1003 80.6704 26.0703 80.7868 26.0703C80.9032 26.0703 80.9951 26.1003 81.0625 26.1603C81.1299 26.2203 81.1636 26.3133 81.1636 26.4393V30.1923C81.1636 30.3123 81.1299 30.4053 81.0625 30.4713C80.9951 30.5373 80.9032 30.5703 80.7868 30.5703C80.6704 30.5703 80.5785 30.5373 80.5111 30.4713C80.4498 30.4053 80.4192 30.3123 80.4192 30.1923V28.5453H77.9838V30.1923C77.9838 30.3123 77.9532 30.4053 77.892 30.4713C77.8307 30.5373 77.7388 30.5703 77.6163 30.5703Z" fill="#268561"/>
<path d="M85.7669 30.5703C85.6505 30.5703 85.5617 30.5403 85.5004 30.4803C85.4391 30.4143 85.4085 30.3273 85.4085 30.2193V28.8423H84.756C84.5171 28.8423 84.3118 28.9023 84.1403 29.0223C83.9688 29.1423 83.8309 29.2893 83.7268 29.4633L83.2029 30.3633C83.1478 30.4533 83.0835 30.5133 83.0099 30.5433C82.9364 30.5733 82.8629 30.5793 82.7894 30.5613C82.7159 30.5433 82.6515 30.5073 82.5964 30.4533C82.5413 30.3993 82.5076 30.3363 82.4953 30.2643C82.4831 30.1863 82.5014 30.1053 82.5504 30.0213L82.9916 29.2923C83.0957 29.1123 83.2336 28.9623 83.4051 28.8423C83.5767 28.7223 83.7513 28.6623 83.9289 28.6623H84.0484V28.7433C83.546 28.7433 83.157 28.6293 82.8813 28.4013C82.6056 28.1733 82.4677 27.8553 82.4677 27.4473C82.4677 27.1773 82.5259 26.9463 82.6423 26.7543C82.7649 26.5563 82.9487 26.4033 83.1937 26.2953C83.4388 26.1873 83.7421 26.1333 84.1035 26.1333H85.721C85.8496 26.1333 85.9476 26.1663 86.015 26.2323C86.0824 26.2983 86.1161 26.3913 86.1161 26.5113V30.2193C86.1161 30.3273 86.0824 30.4143 86.015 30.4803C85.9538 30.5403 85.8711 30.5703 85.7669 30.5703ZM84.2414 28.3113H85.4085V26.6463H84.2414C83.8799 26.6463 83.6134 26.7213 83.4419 26.8713C83.2703 27.0153 83.1845 27.2163 83.1845 27.4743C83.1845 27.7383 83.2703 27.9453 83.4419 28.0953C83.6134 28.2393 83.8799 28.3113 84.2414 28.3113Z" fill="#268561"/>
<path d="M90.7208 30.5703C90.6044 30.5703 90.5156 30.5403 90.4543 30.4803C90.3931 30.4143 90.3624 30.3273 90.3624 30.2193V28.8423H89.71C89.471 28.8423 89.2658 28.9023 89.0942 29.0223C88.9227 29.1423 88.7848 29.2893 88.6807 29.4633L88.1569 30.3633C88.1017 30.4533 88.0374 30.5133 87.9639 30.5433C87.8904 30.5733 87.8168 30.5793 87.7433 30.5613C87.6698 30.5433 87.6055 30.5073 87.5503 30.4533C87.4952 30.3993 87.4615 30.3363 87.4492 30.2643C87.437 30.1863 87.4554 30.1053 87.5044 30.0213L87.9455 29.2923C88.0496 29.1123 88.1875 28.9623 88.359 28.8423C88.5306 28.7223 88.7052 28.6623 88.8829 28.6623H89.0023V28.7433C88.5 28.7433 88.1109 28.6293 87.8352 28.4013C87.5595 28.1733 87.4217 27.8553 87.4217 27.4473C87.4217 27.1773 87.4799 26.9463 87.5963 26.7543C87.7188 26.5563 87.9026 26.4033 88.1477 26.2953C88.3927 26.1873 88.696 26.1333 89.0575 26.1333H90.6749C90.8036 26.1333 90.9016 26.1663 90.969 26.2323C91.0364 26.2983 91.0701 26.3913 91.0701 26.5113V30.2193C91.0701 30.3273 91.0364 30.4143 90.969 30.4803C90.9077 30.5403 90.825 30.5703 90.7208 30.5703ZM89.1953 28.3113H90.3624V26.6463H89.1953C88.8339 26.6463 88.5673 26.7213 88.3958 26.8713C88.2243 27.0153 88.1385 27.2163 88.1385 27.4743C88.1385 27.7383 88.2243 27.9453 88.3958 28.0953C88.5673 28.2393 88.8339 28.3113 89.1953 28.3113Z" fill="#268561"/>
<path d="M95.2871 30.5703C95.1645 30.5703 95.0696 30.5373 95.0022 30.4713C94.9409 30.4053 94.9103 30.3123 94.9103 30.1923V26.5473C94.9103 26.4093 94.9471 26.3073 95.0206 26.2413C95.0941 26.1693 95.1982 26.1333 95.333 26.1333H98.3841C98.5189 26.1333 98.623 26.1693 98.6965 26.2413C98.7701 26.3073 98.8068 26.4093 98.8068 26.5473V30.1923C98.8068 30.3123 98.7731 30.4053 98.7057 30.4713C98.6383 30.5373 98.5464 30.5703 98.43 30.5703C98.3136 30.5703 98.2217 30.5373 98.1543 30.4713C98.0931 30.4053 98.0624 30.3123 98.0624 30.1923V26.7183H95.6547V30.1923C95.6547 30.3123 95.624 30.4053 95.5628 30.4713C95.5015 30.5373 95.4096 30.5703 95.2871 30.5703Z" fill="#268561"/>
<path d="M100.654 32.1903C100.531 32.1903 100.439 32.1573 100.378 32.0913C100.317 32.0313 100.286 31.9413 100.286 31.8213V26.4393C100.286 26.3193 100.317 26.2293 100.378 26.1693C100.439 26.1033 100.528 26.0703 100.645 26.0703C100.767 26.0703 100.859 26.1033 100.92 26.1693C100.988 26.2293 101.021 26.3193 101.021 26.4393V27.2943L100.92 27.1683C101.018 26.8263 101.211 26.5563 101.499 26.3583C101.793 26.1543 102.143 26.0523 102.547 26.0523C102.945 26.0523 103.291 26.1453 103.585 26.3313C103.886 26.5113 104.115 26.7723 104.275 27.1143C104.44 27.4503 104.523 27.8523 104.523 28.3203C104.523 28.7823 104.44 29.1843 104.275 29.5263C104.115 29.8623 103.889 30.1233 103.595 30.3093C103.301 30.4953 102.951 30.5883 102.547 30.5883C102.143 30.5883 101.796 30.4893 101.509 30.2913C101.221 30.0873 101.025 29.8173 100.92 29.4813H101.031V31.8213C101.031 31.9413 100.997 32.0313 100.93 32.0913C100.862 32.1573 100.77 32.1903 100.654 32.1903ZM102.391 30.0033C102.673 30.0033 102.915 29.9373 103.117 29.8053C103.325 29.6733 103.484 29.4813 103.595 29.2293C103.711 28.9773 103.769 28.6743 103.769 28.3203C103.769 27.7743 103.644 27.3573 103.392 27.0693C103.147 26.7813 102.813 26.6373 102.391 26.6373C102.115 26.6373 101.873 26.7033 101.665 26.8353C101.456 26.9613 101.294 27.1503 101.178 27.4023C101.067 27.6483 101.012 27.9543 101.012 28.3203C101.012 28.8603 101.138 29.2773 101.389 29.5713C101.64 29.8593 101.974 30.0033 102.391 30.0033Z" fill="#268561"/>
<path d="M107.59 30.5883C107.155 30.5883 106.778 30.4953 106.46 30.3093C106.141 30.1233 105.893 29.8623 105.715 29.5263C105.544 29.1843 105.458 28.7823 105.458 28.3203C105.458 27.9723 105.507 27.6603 105.605 27.3843C105.703 27.1023 105.847 26.8623 106.037 26.6643C106.227 26.4663 106.451 26.3163 106.708 26.2143C106.971 26.1063 107.265 26.0523 107.59 26.0523C108.025 26.0523 108.402 26.1453 108.72 26.3313C109.039 26.5173 109.284 26.7813 109.456 27.1233C109.633 27.4593 109.722 27.8583 109.722 28.3203C109.722 28.6683 109.673 28.9803 109.575 29.2563C109.477 29.5323 109.333 29.7723 109.143 29.9763C108.953 30.1743 108.727 30.3273 108.463 30.4353C108.206 30.5373 107.915 30.5883 107.59 30.5883ZM107.59 30.0033C107.866 30.0033 108.108 29.9373 108.316 29.8053C108.524 29.6733 108.684 29.4813 108.794 29.2293C108.91 28.9773 108.969 28.6743 108.969 28.3203C108.969 27.7743 108.843 27.3573 108.592 27.0693C108.347 26.7813 108.013 26.6373 107.59 26.6373C107.308 26.6373 107.063 26.7033 106.855 26.8353C106.653 26.9613 106.493 27.1503 106.377 27.4023C106.267 27.6483 106.212 27.9543 106.212 28.3203C106.212 28.8603 106.337 29.2773 106.588 29.5713C106.84 29.8593 107.174 30.0033 107.59 30.0033Z" fill="#268561"/>
<path d="M110.764 31.7403C110.66 31.7403 110.581 31.7103 110.525 31.6503C110.47 31.5903 110.443 31.5063 110.443 31.3983V30.2823C110.443 30.0423 110.565 29.9223 110.81 29.9223H111.251L110.81 30.0753C110.976 29.8593 111.107 29.6253 111.206 29.3733C111.31 29.1153 111.386 28.8273 111.435 28.5093C111.484 28.1913 111.509 27.8283 111.509 27.4203V26.5473C111.509 26.4093 111.546 26.3073 111.619 26.2413C111.693 26.1693 111.797 26.1333 111.932 26.1333H114.247C114.388 26.1333 114.492 26.1693 114.56 26.2413C114.633 26.3073 114.67 26.4093 114.67 26.5473V30.2553L114.33 29.9223H115.01C115.127 29.9223 115.215 29.9523 115.277 30.0123C115.344 30.0723 115.378 30.1623 115.378 30.2823V31.3983C115.378 31.6263 115.271 31.7403 115.056 31.7403C114.952 31.7403 114.872 31.7103 114.817 31.6503C114.762 31.5903 114.734 31.5063 114.734 31.3983V30.5073H111.077V31.3983C111.077 31.6263 110.973 31.7403 110.764 31.7403ZM111.628 29.9223H113.962V26.7093H112.17V27.5463C112.17 27.9963 112.124 28.4313 112.033 28.8513C111.941 29.2653 111.806 29.6223 111.628 29.9223Z" fill="#268561"/>
<path d="M117.37 32.1903C117.278 32.1903 117.205 32.1663 117.15 32.1183C117.094 32.0703 117.061 32.0043 117.048 31.9203C117.042 31.8423 117.058 31.7613 117.094 31.6773L117.728 30.2823V30.5973L115.964 26.5833C115.927 26.4933 115.915 26.4093 115.927 26.3313C115.939 26.2533 115.976 26.1903 116.038 26.1423C116.099 26.0943 116.185 26.0703 116.295 26.0703C116.393 26.0703 116.469 26.0913 116.525 26.1333C116.58 26.1753 116.629 26.2503 116.672 26.3583L118.179 29.9763H117.931L119.456 26.3583C119.505 26.2503 119.557 26.1753 119.612 26.1333C119.668 26.0913 119.747 26.0703 119.851 26.0703C119.949 26.0703 120.023 26.0943 120.072 26.1423C120.127 26.1903 120.158 26.2533 120.164 26.3313C120.176 26.4033 120.164 26.4843 120.127 26.5743L117.774 31.9023C117.725 32.0103 117.67 32.0853 117.609 32.1273C117.554 32.1693 117.474 32.1903 117.37 32.1903Z" fill="#268561"/>
<path d="M121.564 30.5703C121.442 30.5703 121.347 30.5373 121.28 30.4713C121.218 30.4053 121.188 30.3123 121.188 30.1923V26.4663C121.188 26.3403 121.218 26.2473 121.28 26.1873C121.347 26.1213 121.442 26.0883 121.564 26.0883C121.681 26.0883 121.77 26.1213 121.831 26.1873C121.898 26.2473 121.932 26.3403 121.932 26.4663V27.9603H122.768L124.128 26.2503C124.19 26.1783 124.257 26.1333 124.331 26.1153C124.404 26.0913 124.472 26.0913 124.533 26.1153C124.6 26.1333 124.652 26.1693 124.689 26.2233C124.732 26.2713 124.753 26.3313 124.753 26.4033C124.753 26.4753 124.726 26.5503 124.671 26.6283L123.375 28.2573L123.164 28.0233C123.335 28.0413 123.485 28.0833 123.614 28.1493C123.742 28.2153 123.865 28.3143 123.981 28.4463C124.098 28.5783 124.223 28.7613 124.358 28.9953L125.02 30.0663C125.063 30.1503 125.078 30.2253 125.066 30.2913C125.06 30.3573 125.029 30.4173 124.974 30.4713C124.919 30.5193 124.854 30.5493 124.781 30.5613C124.714 30.5733 124.646 30.5643 124.579 30.5343C124.511 30.5043 124.45 30.4503 124.395 30.3723L123.669 29.1843C123.565 29.0163 123.467 28.8873 123.375 28.7973C123.283 28.7013 123.179 28.6353 123.062 28.5993C122.946 28.5633 122.802 28.5453 122.63 28.5453H121.932V30.1923C121.932 30.3123 121.898 30.4053 121.831 30.4713C121.77 30.5373 121.681 30.5703 121.564 30.5703Z" fill="#268561"/>
<path d="M130.206 31.7403C130.102 31.7403 130.023 31.7103 129.967 31.6503C129.912 31.5963 129.885 31.5153 129.885 31.4073V30.5073H126.411C126.288 30.5073 126.193 30.4743 126.126 30.4083C126.059 30.3423 126.025 30.2493 126.025 30.1293V26.4393C126.025 26.3133 126.056 26.2203 126.117 26.1603C126.184 26.1003 126.279 26.0703 126.402 26.0703C126.518 26.0703 126.607 26.1003 126.668 26.1603C126.736 26.2203 126.769 26.3133 126.769 26.4393V29.9223H129.076V26.4393C129.076 26.3133 129.107 26.2203 129.168 26.1603C129.235 26.1003 129.33 26.0703 129.453 26.0703C129.569 26.0703 129.658 26.1003 129.719 26.1603C129.787 26.2203 129.82 26.3133 129.82 26.4393V30.2643L129.48 29.9223H130.151C130.274 29.9223 130.366 29.9523 130.427 30.0123C130.494 30.0723 130.528 30.1623 130.528 30.2823V31.4073C130.528 31.6293 130.421 31.7403 130.206 31.7403Z" fill="#268561"/>
<path d="M131.857 30.5703C131.79 30.5703 131.729 30.5553 131.674 30.5253C131.625 30.5013 131.585 30.4593 131.554 30.3993C131.53 30.3393 131.517 30.2643 131.517 30.1743V26.4303C131.517 26.3103 131.548 26.2203 131.609 26.1603C131.671 26.1003 131.753 26.0703 131.857 26.0703C131.968 26.0703 132.05 26.1003 132.105 26.1603C132.167 26.2203 132.197 26.3103 132.197 26.4303V29.8143H131.968L134.642 26.3043C134.691 26.2383 134.749 26.1843 134.817 26.1423C134.884 26.0943 134.97 26.0703 135.074 26.0703C135.147 26.0703 135.209 26.0823 135.258 26.1063C135.307 26.1303 135.343 26.1723 135.368 26.2323C135.399 26.2863 135.414 26.3613 135.414 26.4573V30.2103C135.414 30.3243 135.383 30.4143 135.322 30.4803C135.267 30.5403 135.184 30.5703 135.074 30.5703C134.964 30.5703 134.878 30.5403 134.817 30.4803C134.761 30.4143 134.734 30.3243 134.734 30.2103V26.8173H134.964L132.28 30.3363C132.237 30.3963 132.182 30.4503 132.115 30.4983C132.053 30.5463 131.968 30.5703 131.857 30.5703Z" fill="#268561"/>
<path d="M140.018 30.5703C139.901 30.5703 139.813 30.5403 139.751 30.4803C139.69 30.4143 139.659 30.3273 139.659 30.2193V28.8423H139.007C138.768 28.8423 138.563 28.9023 138.391 29.0223C138.22 29.1423 138.082 29.2893 137.978 29.4633L137.454 30.3633C137.399 30.4533 137.334 30.5133 137.261 30.5433C137.187 30.5733 137.114 30.5793 137.04 30.5613C136.967 30.5433 136.902 30.5073 136.847 30.4533C136.792 30.3993 136.759 30.3363 136.746 30.2643C136.734 30.1863 136.752 30.1053 136.801 30.0213L137.243 29.2923C137.347 29.1123 137.485 28.9623 137.656 28.8423C137.828 28.7223 138.002 28.6623 138.18 28.6623H138.299V28.7433C137.797 28.7433 137.408 28.6293 137.132 28.4013C136.857 28.1733 136.719 27.8553 136.719 27.4473C136.719 27.1773 136.777 26.9463 136.893 26.7543C137.016 26.5563 137.2 26.4033 137.445 26.2953C137.69 26.1873 137.993 26.1333 138.354 26.1333H139.972C140.101 26.1333 140.199 26.1663 140.266 26.2323C140.333 26.2983 140.367 26.3913 140.367 26.5113V30.2193C140.367 30.3273 140.333 30.4143 140.266 30.4803C140.205 30.5403 140.122 30.5703 140.018 30.5703ZM138.492 28.3113H139.659V26.6463H138.492C138.131 26.6463 137.864 26.7213 137.693 26.8713C137.521 27.0153 137.436 27.2163 137.436 27.4743C137.436 27.7383 137.521 27.9453 137.693 28.0953C137.864 28.2393 138.131 28.3113 138.492 28.3113Z" fill="#268561"/>
<path d="M146.073 30.5883C145.638 30.5883 145.261 30.4953 144.943 30.3093C144.624 30.1233 144.376 29.8623 144.198 29.5263C144.027 29.1843 143.941 28.7823 143.941 28.3203C143.941 27.9723 143.99 27.6603 144.088 27.3843C144.186 27.1023 144.33 26.8623 144.52 26.6643C144.71 26.4663 144.933 26.3163 145.191 26.2143C145.454 26.1063 145.748 26.0523 146.073 26.0523C146.508 26.0523 146.885 26.1453 147.203 26.3313C147.522 26.5173 147.767 26.7813 147.938 27.1233C148.116 27.4593 148.205 27.8583 148.205 28.3203C148.205 28.6683 148.156 28.9803 148.058 29.2563C147.96 29.5323 147.816 29.7723 147.626 29.9763C147.436 30.1743 147.209 30.3273 146.946 30.4353C146.689 30.5373 146.398 30.5883 146.073 30.5883ZM146.073 30.0033C146.349 30.0033 146.591 29.9373 146.799 29.8053C147.007 29.6733 147.166 29.4813 147.277 29.2293C147.393 28.9773 147.451 28.6743 147.451 28.3203C147.451 27.7743 147.326 27.3573 147.075 27.0693C146.829 26.7813 146.496 26.6373 146.073 26.6373C145.791 26.6373 145.546 26.7033 145.338 26.8353C145.135 26.9613 144.976 27.1503 144.86 27.4023C144.75 27.6483 144.694 27.9543 144.694 28.3203C144.694 28.8603 144.82 29.2773 145.071 29.5713C145.322 29.8593 145.656 30.0033 146.073 30.0033Z" fill="#268561"/>
<path d="M150.718 30.5703C150.601 30.5703 150.509 30.5373 150.442 30.4713C150.374 30.4053 150.341 30.3123 150.341 30.1923V26.7183H148.999C148.766 26.7183 148.65 26.6193 148.65 26.4213C148.65 26.3313 148.68 26.2623 148.742 26.2143C148.803 26.1603 148.889 26.1333 148.999 26.1333H152.436C152.663 26.1333 152.776 26.2293 152.776 26.4213C152.776 26.5173 152.745 26.5923 152.684 26.6463C152.629 26.6943 152.546 26.7183 152.436 26.7183H151.085V30.1923C151.085 30.3123 151.054 30.4053 150.993 30.4713C150.938 30.5373 150.846 30.5703 150.718 30.5703Z" fill="#268561"/>
<path d="M155.7 31.7403C155.596 31.7403 155.516 31.7103 155.461 31.6503C155.406 31.5903 155.378 31.5063 155.378 31.3983V30.2823C155.378 30.0423 155.501 29.9223 155.746 29.9223H156.187L155.746 30.0753C155.911 29.8593 156.043 29.6253 156.141 29.3733C156.245 29.1153 156.322 28.8273 156.371 28.5093C156.42 28.1913 156.444 27.8283 156.444 27.4203V26.5473C156.444 26.4093 156.481 26.3073 156.554 26.2413C156.628 26.1693 156.732 26.1333 156.867 26.1333H159.183C159.324 26.1333 159.428 26.1693 159.495 26.2413C159.569 26.3073 159.605 26.4093 159.605 26.5473V30.2553L159.265 29.9223H159.946C160.062 29.9223 160.151 29.9523 160.212 30.0123C160.279 30.0723 160.313 30.1623 160.313 30.2823V31.3983C160.313 31.6263 160.206 31.7403 159.991 31.7403C159.887 31.7403 159.808 31.7103 159.753 31.6503C159.697 31.5903 159.67 31.5063 159.67 31.3983V30.5073H156.012V31.3983C156.012 31.6263 155.908 31.7403 155.7 31.7403ZM156.564 29.9223H158.898V26.7093H157.106V27.5463C157.106 27.9963 157.06 28.4313 156.968 28.8513C156.876 29.2653 156.741 29.6223 156.564 29.9223Z" fill="#268561"/>
<path d="M162.719 30.5883C162.413 30.5883 162.137 30.5313 161.892 30.4173C161.653 30.2973 161.463 30.1353 161.322 29.9313C161.181 29.7273 161.111 29.4993 161.111 29.2473C161.111 28.9233 161.193 28.6683 161.359 28.4823C161.53 28.2963 161.809 28.1643 162.195 28.0863C162.587 28.0083 163.12 27.9693 163.794 27.9693H164.208V28.4463H163.803C163.307 28.4463 162.915 28.4703 162.627 28.5183C162.345 28.5603 162.146 28.6353 162.03 28.7433C161.919 28.8513 161.864 29.0043 161.864 29.2023C161.864 29.4483 161.95 29.6493 162.122 29.8053C162.299 29.9613 162.538 30.0393 162.838 30.0393C163.084 30.0393 163.298 29.9823 163.482 29.8683C163.672 29.7543 163.819 29.5983 163.923 29.4003C164.033 29.2023 164.088 28.9743 164.088 28.7163V27.6903C164.088 27.3183 164.012 27.0513 163.859 26.8893C163.705 26.7213 163.454 26.6373 163.105 26.6373C162.891 26.6373 162.676 26.6643 162.462 26.7183C162.247 26.7723 162.021 26.8593 161.782 26.9793C161.696 27.0213 161.622 27.0363 161.561 27.0243C161.5 27.0063 161.451 26.9733 161.414 26.9253C161.377 26.8773 161.356 26.8233 161.35 26.7633C161.344 26.6973 161.356 26.6343 161.386 26.5743C161.423 26.5143 161.478 26.4663 161.552 26.4303C161.821 26.2983 162.088 26.2023 162.351 26.1423C162.615 26.0823 162.866 26.0523 163.105 26.0523C163.491 26.0523 163.81 26.1153 164.061 26.2413C164.312 26.3613 164.499 26.5473 164.621 26.7993C164.744 27.0453 164.805 27.3633 164.805 27.7533V30.1923C164.805 30.3123 164.774 30.4053 164.713 30.4713C164.658 30.5373 164.575 30.5703 164.465 30.5703C164.349 30.5703 164.26 30.5373 164.199 30.4713C164.137 30.4053 164.107 30.3123 164.107 30.1923V29.4903H164.189C164.14 29.7183 164.045 29.9133 163.905 30.0753C163.77 30.2373 163.601 30.3633 163.399 30.4533C163.197 30.5433 162.97 30.5883 162.719 30.5883Z" fill="#268561"/>
<path d="M169.493 30.5703C169.376 30.5703 169.284 30.5373 169.217 30.4713C169.156 30.3993 169.125 30.3033 169.125 30.1833V28.7343C168.953 28.8363 168.767 28.9143 168.564 28.9683C168.368 29.0163 168.16 29.0403 167.939 29.0403C167.302 29.0403 166.831 28.8933 166.524 28.5993C166.218 28.2993 166.065 27.8463 166.065 27.2403V26.4393C166.065 26.3193 166.095 26.2293 166.157 26.1693C166.224 26.1033 166.319 26.0703 166.442 26.0703C166.558 26.0703 166.647 26.1033 166.708 26.1693C166.775 26.2293 166.809 26.3193 166.809 26.4393V27.1863C166.809 27.6183 166.904 27.9333 167.094 28.1313C167.29 28.3293 167.602 28.4283 168.031 28.4283C168.252 28.4283 168.448 28.4043 168.62 28.3563C168.791 28.3083 168.956 28.2303 169.116 28.1223V26.4483C169.116 26.1963 169.238 26.0703 169.483 26.0703C169.606 26.0703 169.698 26.1033 169.759 26.1693C169.826 26.2353 169.86 26.3283 169.86 26.4483V30.1833C169.86 30.3033 169.83 30.3993 169.768 30.4713C169.707 30.5373 169.615 30.5703 169.493 30.5703Z" fill="#268561"/>
<path d="M171.705 30.5703C171.583 30.5703 171.488 30.5373 171.42 30.4713C171.359 30.4053 171.328 30.3123 171.328 30.1923V26.4393C171.328 26.3133 171.359 26.2203 171.42 26.1603C171.488 26.1003 171.583 26.0703 171.705 26.0703C171.821 26.0703 171.91 26.1003 171.972 26.1603C172.039 26.2203 172.073 26.3133 172.073 26.4393V27.9513H174.508V26.4393C174.508 26.3133 174.539 26.2203 174.6 26.1603C174.667 26.1003 174.759 26.0703 174.876 26.0703C174.992 26.0703 175.084 26.1003 175.151 26.1603C175.219 26.2203 175.252 26.3133 175.252 26.4393V30.1923C175.252 30.3123 175.219 30.4053 175.151 30.4713C175.084 30.5373 174.992 30.5703 174.876 30.5703C174.759 30.5703 174.667 30.5373 174.6 30.4713C174.539 30.4053 174.508 30.3123 174.508 30.1923V28.5453H172.073V30.1923C172.073 30.3123 172.042 30.4053 171.981 30.4713C171.92 30.5373 171.828 30.5703 171.705 30.5703Z" fill="#268561"/>
<path d="M177.062 30.5703C176.995 30.5703 176.933 30.5553 176.878 30.5253C176.829 30.5013 176.789 30.4593 176.759 30.3993C176.734 30.3393 176.722 30.2643 176.722 30.1743V26.4303C176.722 26.3103 176.753 26.2203 176.814 26.1603C176.875 26.1003 176.958 26.0703 177.062 26.0703C177.172 26.0703 177.255 26.1003 177.31 26.1603C177.371 26.2203 177.402 26.3103 177.402 26.4303V29.8143H177.172L179.847 26.3043C179.896 26.2383 179.954 26.1843 180.021 26.1423C180.089 26.0943 180.174 26.0703 180.278 26.0703C180.352 26.0703 180.413 26.0823 180.462 26.1063C180.511 26.1303 180.548 26.1723 180.573 26.2323C180.603 26.2863 180.618 26.3613 180.618 26.4573V30.2103C180.618 30.3243 180.588 30.4143 180.527 30.4803C180.471 30.5403 180.389 30.5703 180.278 30.5703C180.168 30.5703 180.082 30.5403 180.021 30.4803C179.966 30.4143 179.938 30.3243 179.938 30.2103V26.8173H180.168L177.485 30.3363C177.442 30.3963 177.387 30.4503 177.319 30.4983C177.258 30.5463 177.172 30.5703 177.062 30.5703Z" fill="#268561"/>
<path d="M182.466 30.5703C182.343 30.5703 182.248 30.5373 182.181 30.4713C182.119 30.4053 182.089 30.3123 182.089 30.1923V26.4663C182.089 26.3403 182.119 26.2473 182.181 26.1873C182.248 26.1213 182.343 26.0883 182.466 26.0883C182.582 26.0883 182.671 26.1213 182.732 26.1873C182.799 26.2473 182.833 26.3403 182.833 26.4663V27.9603H183.669L185.03 26.2503C185.091 26.1783 185.158 26.1333 185.232 26.1153C185.305 26.0913 185.373 26.0913 185.434 26.1153C185.501 26.1333 185.553 26.1693 185.59 26.2233C185.633 26.2713 185.654 26.3313 185.654 26.4033C185.654 26.4753 185.627 26.5503 185.572 26.6283L184.276 28.2573L184.065 28.0233C184.236 28.0413 184.386 28.0833 184.515 28.1493C184.644 28.2153 184.766 28.3143 184.882 28.4463C184.999 28.5783 185.124 28.7613 185.259 28.9953L185.921 30.0663C185.964 30.1503 185.979 30.2253 185.967 30.2913C185.961 30.3573 185.93 30.4173 185.875 30.4713C185.82 30.5193 185.756 30.5493 185.682 30.5613C185.615 30.5733 185.547 30.5643 185.48 30.5343C185.412 30.5043 185.351 30.4503 185.296 30.3723L184.57 29.1843C184.466 29.0163 184.368 28.8873 184.276 28.7973C184.184 28.7013 184.08 28.6353 183.963 28.5993C183.847 28.5633 183.703 28.5453 183.532 28.5453H182.833V30.1923C182.833 30.3123 182.799 30.4053 182.732 30.4713C182.671 30.5373 182.582 30.5703 182.466 30.5703Z" fill="#268561"/>
<path d="M188.792 30.5883C188.357 30.5883 187.98 30.4953 187.661 30.3093C187.343 30.1233 187.094 29.8623 186.917 29.5263C186.745 29.1843 186.66 28.7823 186.66 28.3203C186.66 27.9723 186.709 27.6603 186.807 27.3843C186.905 27.1023 187.049 26.8623 187.238 26.6643C187.428 26.4663 187.652 26.3163 187.909 26.2143C188.173 26.1063 188.467 26.0523 188.792 26.0523C189.227 26.0523 189.603 26.1453 189.922 26.3313C190.241 26.5173 190.486 26.7813 190.657 27.1233C190.835 27.4593 190.924 27.8583 190.924 28.3203C190.924 28.6683 190.875 28.9803 190.777 29.2563C190.679 29.5323 190.535 29.7723 190.345 29.9763C190.155 30.1743 189.928 30.3273 189.665 30.4353C189.407 30.5373 189.116 30.5883 188.792 30.5883ZM188.792 30.0033C189.067 30.0033 189.309 29.9373 189.518 29.8053C189.726 29.6733 189.885 29.4813 189.995 29.2293C190.112 28.9773 190.17 28.6743 190.17 28.3203C190.17 27.7743 190.044 27.3573 189.793 27.0693C189.548 26.7813 189.214 26.6373 188.792 26.6373C188.51 26.6373 188.265 26.7033 188.056 26.8353C187.854 26.9613 187.695 27.1503 187.578 27.4023C187.468 27.6483 187.413 27.9543 187.413 28.3203C187.413 28.8603 187.539 29.2773 187.79 29.5713C188.041 29.8593 188.375 30.0033 188.792 30.0033Z" fill="#268561"/>
<path d="M192.517 30.5073C192.395 30.5073 192.3 30.4743 192.232 30.4083C192.165 30.3423 192.131 30.2493 192.131 30.1293V26.5113C192.131 26.3913 192.165 26.2983 192.232 26.2323C192.3 26.1663 192.395 26.1333 192.517 26.1333H194.309C194.665 26.1333 194.956 26.1783 195.182 26.2683C195.409 26.3523 195.577 26.4813 195.688 26.6553C195.798 26.8233 195.853 27.0333 195.853 27.2853C195.853 27.5613 195.752 27.7953 195.55 27.9873C195.354 28.1793 195.097 28.2933 194.778 28.3293V28.2123C195.158 28.2243 195.455 28.3293 195.669 28.5273C195.89 28.7253 196 28.9833 196 29.3013C196 29.6733 195.859 29.9673 195.577 30.1833C195.296 30.3993 194.897 30.5073 194.383 30.5073H192.517ZM192.839 30.0123H194.355C194.655 30.0123 194.885 29.9493 195.044 29.8233C195.21 29.6913 195.293 29.5053 195.293 29.2653C195.293 29.0253 195.21 28.8423 195.044 28.7163C194.885 28.5903 194.655 28.5273 194.355 28.5273H192.839V30.0123ZM192.839 28.0323H194.272C194.548 28.0323 194.763 27.9693 194.916 27.8433C195.075 27.7173 195.155 27.5433 195.155 27.3213C195.155 27.0993 195.075 26.9283 194.916 26.8083C194.763 26.6883 194.548 26.6283 194.272 26.6283H192.839V28.0323Z" fill="#268561"/>
<defs>
<clipPath id="clip0_2137_512">
<rect width="36.7596" height="36" fill="white"/>
</clipPath>
</defs>
</svg>
