<svg width="44" height="44" viewBox="0 0 44 44" fill="none" xmlns="http://www.w3.org/2000/svg">
<g clip-path="url(#clip0_46_2154)">
<path d="M33.4004 0L23.218 0.787121V5.11629H33.4004V0Z" fill="#373737"/>
<path d="M24.2366 6.65115L19.7102 17.3953L19.8808 25.9937C22.8168 25.8217 26.1567 26.8475 27.6428 29.7473C29.8183 33.9924 28.959 40.5978 23.6905 43.0455H36.5112L37 18.4186H32.3825V17.7365L36.9154 17.1291L32.4974 5.91943L24.2366 6.65115Z" fill="#373737"/>
<path fill-rule="evenodd" clip-rule="evenodd" d="M8.00012 29.1627C8.55432 29.4322 9.4539 29.857 10.3726 30.2837C5.56448 34.5455 8.21361 44 16.9643 44C26.3483 44 29.0604 36.063 26.3483 30.7708C24.2657 26.707 18.8603 25.8884 15.8382 27.1488L16.1458 22.5117C15.3296 23.8028 13.9723 25.9683 13.0484 27.4906L10.5458 26.0932L10.6572 26.2798C11.2055 27.198 11.5449 27.7664 11.8126 28.205L8.00012 29.1627ZM11.6487 31.2616C11.5936 31.1303 11.5733 30.9892 11.5846 30.8424C12.6052 31.3088 13.4522 31.6839 13.6002 31.721L13.8536 29.6836L15.6367 30.1861L15.7569 28.3737C16.3071 28.4388 16.7229 28.6654 16.881 29.0418C17.2091 29.8228 16.3038 30.9528 14.8589 31.5658C13.4141 32.1787 11.9768 32.0425 11.6487 31.2616Z" fill="#373737"/>
</g>
<defs>
<clipPath id="clip0_46_2154">
<rect width="44" height="44" fill="white"/>
</clipPath>
</defs>
</svg>
