<svg width="16" height="16" viewBox="0 0 16 16" fill="none" xmlns="http://www.w3.org/2000/svg">
<path fill-rule="evenodd" clip-rule="evenodd" d="M8.00033 1.99996C4.68662 1.99996 2.00033 4.68625 2.00033 7.99996V14H8.00033C11.314 14 14.0003 11.3137 14.0003 7.99996C14.0003 4.68625 11.314 1.99996 8.00033 1.99996ZM1.33366 14.6666L0.666992 14.6666V7.99996C0.666992 3.94987 3.95024 0.666626 8.00033 0.666626C12.0504 0.666626 15.3337 3.94987 15.3337 7.99996C15.3337 12.05 12.0504 15.3333 8.00033 15.3333H1.33371L1.33366 14.6666ZM1.33366 14.6666L1.33371 15.3333C0.965522 15.3333 0.666992 15.0348 0.666992 14.6666L1.33366 14.6666ZM11.4717 5.86189C11.7321 6.12224 11.7321 6.54435 11.4717 6.8047L7.1384 11.138C6.87805 11.3984 6.45594 11.3984 6.19559 11.138L4.19556 9.13803C3.93521 8.87769 3.9352 8.45558 4.19555 8.19522C4.4559 7.93487 4.87801 7.93487 5.13836 8.19522L6.66699 9.72382L10.5289 5.86189C10.7893 5.60154 11.2114 5.60154 11.4717 5.86189Z" fill="white"/>
</svg>
