<svg width="12" height="12" viewBox="0 0 12 12" fill="none" xmlns="http://www.w3.org/2000/svg">
<path d="M5.99966 1.25L4.47141 4.3694L1.00001 4.87278L3.51474 7.33127L2.91361 10.75L5.99966 9.1048L9.08636 10.75L8.48966 7.33127L11 4.87278L7.54784 4.3694L5.99966 1.25Z" fill="#35532F"/>
<path fill-rule="evenodd" clip-rule="evenodd" d="M5.99838 0.750002C6.18876 0.749513 6.3629 0.857184 6.44754 1.02772L7.87924 3.91244L11.0722 4.37801C11.2602 4.40543 11.4165 4.53712 11.4754 4.71783C11.5343 4.89853 11.4857 5.09701 11.3499 5.23L9.02745 7.50444L9.57892 10.664C9.61178 10.8523 9.53446 11.0428 9.3797 11.1549C9.22495 11.267 9.01983 11.2811 8.85119 11.1912L5.99969 9.6714L3.14883 11.1912C2.98009 11.2812 2.77483 11.267 2.62004 11.1547C2.46525 11.0425 2.38805 10.8517 2.42117 10.6634L2.97662 7.50444L0.65048 5.2303C0.514466 5.09733 0.465683 4.8987 0.524623 4.71785C0.583563 4.53699 0.740016 4.40525 0.928262 4.37795L4.1385 3.91244L5.55065 1.03002C5.63441 0.859055 5.808 0.750491 5.99838 0.750002ZM6.00257 2.38055L4.92042 4.58938C4.84777 4.73767 4.70659 4.84053 4.54317 4.86422L2.0729 5.22243L3.86427 6.97375C3.98229 7.08913 4.03577 7.25531 4.00718 7.41786L3.58373 9.82614L5.76445 8.66358C5.91145 8.58521 6.08783 8.58521 6.23484 8.66356L8.41771 9.82702L7.99711 7.41724C7.9688 7.25503 8.02217 7.08927 8.13982 6.97405L9.92894 5.22188L7.4757 4.86417C7.31333 4.84049 7.17291 4.73866 7.09997 4.59168L6.00257 2.38055Z" fill="#35532F"/>
</svg>
