<svg width="16" height="11" viewBox="0 0 16 11" fill="none" xmlns="http://www.w3.org/2000/svg">
<path d="M7.82822 10.026H8.78422C8.78422 10.026 9.07322 9.994 9.22022 9.835C9.35622 9.689 9.35122 9.415 9.35122 9.415C9.35122 9.415 9.33222 8.132 9.92822 7.943C10.5152 7.757 11.2692 9.183 12.0682 9.732C12.6722 10.147 13.1312 10.056 13.1312 10.056L15.2682 10.026C15.2682 10.026 16.3862 9.957 15.8562 9.078C15.8132 9.006 15.5472 8.428 14.2672 7.24C12.9272 5.996 13.1072 6.198 14.7212 4.047C15.7042 2.737 16.0972 1.937 15.9742 1.595C15.8572 1.269 15.1342 1.355 15.1342 1.355L12.7302 1.369C12.7302 1.369 12.5522 1.345 12.4192 1.424C12.2902 1.502 12.2072 1.682 12.2072 1.682C12.2072 1.682 11.8262 2.696 11.3182 3.558C10.2472 5.377 9.81822 5.473 9.64322 5.36C9.23622 5.097 9.33822 4.302 9.33822 3.738C9.33822 1.975 9.60522 1.24 8.81722 1.05C8.55522 0.986998 8.36322 0.944998 7.69422 0.937998C6.83622 0.928998 6.10922 0.940998 5.69822 1.142C5.42422 1.276 5.21322 1.575 5.34222 1.592C5.50122 1.613 5.86122 1.689 6.05222 1.949C6.29922 2.284 6.29022 3.038 6.29022 3.038C6.29022 3.038 6.43222 5.113 5.95922 5.371C5.63422 5.548 5.18922 5.187 4.23422 3.536C3.74522 2.691 3.37522 1.756 3.37522 1.756C3.37522 1.756 3.30422 1.582 3.17722 1.489C3.02322 1.376 2.80722 1.34 2.80722 1.34L0.521223 1.354C0.521223 1.354 0.178223 1.364 0.0522233 1.513C-0.0597768 1.646 0.0432233 1.92 0.0432233 1.92C0.0432233 1.92 1.83322 6.107 3.85922 8.218C5.71822 10.153 7.82822 10.026 7.82822 10.026Z" fill="white"/>
</svg>
